<?xml version="1.0" encoding="UTF-8" standalone="no"?>
<!DOCTYPE svg PUBLIC "-//W3C//DTD SVG 1.1//EN" "http://www.w3.org/Graphics/SVG/1.1/DTD/svg11.dtd">
<svg width="100%" height="100%" viewBox="0 0 210 235" version="1.1" xmlns="http://www.w3.org/2000/svg" xmlns:xlink="http://www.w3.org/1999/xlink" xml:space="preserve" xmlns:serif="http://www.serif.com/" style="fill-rule:evenodd;clip-rule:evenodd;stroke-miterlimit:1.5;">
    <g transform="matrix(1,0,0,1,-462,-255.001)">
        <g id="lawn-memorial-icon" transform="matrix(0.35,0,0,0.587499,462,255.001)">
            <rect x="0" y="0" width="600" height="400" style="fill:none;"/>
            <clipPath id="_clip1">
                <rect x="0" y="0" width="600" height="400"/>
            </clipPath>
            <g clip-path="url(#_clip1)">
                <g transform="matrix(3.33333,0,0,1.98582,-700,-111.773)">
                    <g transform="matrix(1,0,0,1,-1.42146,-2350.15)">
                        <path d="M233.421,2427.2C233.421,2427.2 238.098,2407.15 274.421,2407.15C316.963,2407.15 326.755,2424.66 369.421,2427.2L369.421,2607.15L233.421,2607.15L233.421,2427.2Z" style="fill:rgb(201,211,223);"/>
                        <path d="M233.421,2427.2C233.421,2427.2 238.098,2407.15 274.421,2407.15C316.963,2407.15 326.755,2424.66 369.421,2427.2L369.421,2607.15L233.421,2607.15L233.421,2427.2ZM241.993,2428.62C243.183,2426.15 249.661,2415.72 274.421,2415.72C294.4,2415.72 306.68,2419.88 318.983,2424.29C331.004,2428.6 343.048,2433.12 360.85,2435.08C360.85,2435.08 360.85,2598.58 360.85,2598.58C360.85,2598.58 241.993,2598.58 241.993,2598.58C241.993,2598.58 241.993,2428.62 241.993,2428.62L241.993,2428.62Z" style="fill:rgb(173,185,201);"/>
                    </g>
                    <g transform="matrix(1.00714,0,0,0.980392,-2.1417,-322.412)">
                        <rect x="210.638" y="540" width="178.724" height="51" style="fill:rgb(201,211,223);"/>
                        <path d="M389.362,540L210.638,540L210.638,591L389.362,591L389.362,540ZM380.851,548.743L380.851,582.257C350.717,582.257 249.283,582.257 219.149,582.257C219.149,582.257 219.149,548.743 219.149,548.743C219.149,548.743 380.851,548.743 380.851,548.743L380.851,548.743Z" style="fill:rgb(173,185,201);"/>
                    </g>
                    <g transform="matrix(0.900736,0,0,0.900736,240.818,72.3475)">
                        <g>
                            <path d="M24.8,23L23,23L23,48L24.8,49.959L24.8,23Z" style="fill:rgb(131,147,167);"/>
                            <g>
                                <g>
                                    <g>
                                        <path d="M25.6,19.7L24.6,19.7L24.4,19.9C27.2,22.6 29.2,22.2 29.2,22.2C27.8,22 26.3,20.5 25.6,19.7Z" style="fill:rgb(173,185,201);fill-rule:nonzero;"/>
                                        <path d="M25.2,19.7L23.8,19.7L23.7,19.8C26.2,24.3 29.3,24.5 29.3,24.5C27.3,23.5 25.8,20.8 25.2,19.7Z" style="fill:rgb(173,185,201);fill-rule:nonzero;"/>
                                    </g>
                                    <g>
                                        <path d="M22.2,19.7C21.5,20.5 20,22 18.7,22.2C18.7,22.2 20.7,22.6 23.5,19.9L23.3,19.7L22.2,19.7Z" style="fill:rgb(173,185,201);fill-rule:nonzero;"/>
                                        <path d="M22.6,19.7C22,20.8 20.4,23.5 18.6,24.4C18.6,24.4 21.7,24.2 24.2,19.7L22.6,19.7Z" style="fill:rgb(173,185,201);fill-rule:nonzero;"/>
                                    </g>
                                </g>
                                <path d="M22.2,19.7C22.1,20.1 22,20.5 22,20.9C22,23.1 22.8,23.9 23.9,23.9C24.9,23.9 25.8,23.1 25.8,20.9C25.8,20.5 25.7,20.1 25.6,19.7L22.2,19.7Z" style="fill:rgb(173,185,201);fill-rule:nonzero;"/>
                                <g>
                                    <path d="M23.9,15.1C19,10.9 19,4.2 23.9,0C28.7,4.2 28.7,10.9 23.9,15.1Z" style="fill:rgb(83,101,125);fill-rule:nonzero;"/>
                                    <path d="M31,17.1C30.6,17.7 30.2,18.2 29.6,18.5C26,21.5 20.6,21.2 17.6,18.1C17.3,17.8 17,17.4 16.7,17C15.8,15.6 15.4,13.6 15.9,11.7C17.2,6.4 16.7,4.9 16.2,1.6C18.1,1.6 23.9,7.6 23.9,11.7C23.9,7.2 29.7,1.6 31.6,1.6C31.1,4.9 30.6,6.4 31.9,11.7C32.3,13.6 31.9,15.6 31,17.1Z" style="fill:rgb(131,147,167);fill-rule:nonzero;"/>
                                </g>
                            </g>
                        </g>
                        <g>
                            <g>
                                <path d="M19,33.6C19.5,32.7 20.1,32.3 20.6,32.6C21.1,32.9 21.2,33.8 20.7,34.7C20,35.9 18.7,36.1 18.7,36.1C18.7,36.1 18.4,34.8 19,33.6Z" style="fill:rgb(173,185,201);fill-rule:nonzero;"/>
                                <g>
                                    <path d="M19.1,28.4C18.7,29.5 18.9,30.4 19.5,30.7C20.1,31 20.8,30.6 21.3,29.5C21.9,28.1 21,26.5 21,26.5C21,26.5 19.6,27 19.1,28.4Z" style="fill:rgb(173,185,201);fill-rule:nonzero;"/>
                                    <path d="M20.9,30.3C20,30 19.5,30.3 19.4,30.7C19.3,31.1 19.8,31.6 20.6,31.9C21.7,32.3 22.5,31.7 22.5,31.7C22.6,31.7 22.1,30.7 20.9,30.3Z" style="fill:rgb(173,185,201);fill-rule:nonzero;"/>
                                </g>
                            </g>
                            <g>
                                <path d="M12.5,28.2C14.8,29.7 16.8,30.2 17.8,29.2C18.8,28.3 18.2,25.7 15.1,23.7C10.9,21.2 7.5,23.3 7.6,23.3C7.7,23.4 9.5,26.3 12.5,28.2Z" style="fill:rgb(173,185,201);fill-rule:nonzero;"/>
                                <path d="M11.2,24.6C17.5,27.5 22.2,33.8 23.4,40.6C23.6,40.6 24.1,40.3 24.4,40.3C22.8,33.2 17.5,27.2 11.2,24.6Z" style="fill:rgb(131,147,167);fill-rule:nonzero;"/>
                            </g>
                        </g>
                        <g>
                            <g>
                                <path d="M28.9,32.5C29.3,33.6 29.1,34.5 28.5,34.8C27.9,35.1 27.2,34.7 26.7,33.6C26.1,32.2 27,30.6 27,30.6C27,30.6 28.4,31 28.9,32.5Z" style="fill:rgb(173,185,201);fill-rule:nonzero;"/>
                                <path d="M27.1,34.4C28,34.1 28.5,34.4 28.6,34.8C28.7,35.2 28.2,35.7 27.4,36C26.3,36.4 25.5,35.8 25.5,35.8C25.4,35.8 25.9,34.7 27.1,34.4Z" style="fill:rgb(173,185,201);fill-rule:nonzero;"/>
                            </g>
                            <g>
                                <path d="M35.5,32.3C33.2,33.8 31.2,34.3 30.2,33.3C29.2,32.4 29.8,29.8 32.9,27.8C37.1,25.3 40.5,27.4 40.4,27.4C40.3,27.4 38.5,30.4 35.5,32.3Z" style="fill:rgb(173,185,201);fill-rule:nonzero;"/>
                                <path d="M36.8,28.6C30.5,31.5 25.8,37.8 24.6,44.6C24.4,44.6 23.9,44.3 23.6,44.3C25.2,37.3 30.5,31.3 36.8,28.6Z" style="fill:rgb(131,147,167);fill-rule:nonzero;"/>
                            </g>
                        </g>
                    </g>
                    <g transform="matrix(0.798705,0,0,1,78.7535,2.18082)">
                        <g transform="matrix(1,0,0,1,0,2.57143)">
                            <g transform="matrix(1.4428,0,0,1,-130.951,-954.543)">
                                <path d="M274.99,1094.67L326.054,1094.67" style="fill:none;stroke:rgb(173,185,201);stroke-width:7.94px;"/>
                            </g>
                            <g transform="matrix(0.78079,0,0,1,-0.239297,-954.543)">
                                <path d="M274.99,1094.67L326.054,1094.67" style="fill:none;stroke:rgb(173,185,201);stroke-width:10.29px;"/>
                            </g>
                        </g>
                        <g transform="matrix(2.44807,0,0,1,-458.723,-968.647)">
                            <path d="M274.99,1094.67L326.054,1094.67" style="fill:none;stroke:rgb(173,185,201);stroke-width:5.52px;"/>
                        </g>
                        <g transform="matrix(1,0,0,1,0,0.857143)">
                            <g transform="matrix(0.930443,0,0,1,3.6158,-986.181)">
                                <path d="M274.99,1094.67L326.054,1094.67" style="fill:none;stroke:rgb(173,185,201);stroke-width:9.73px;"/>
                            </g>
                            <g transform="matrix(0.396171,0,0,1,210.305,-986.181)">
                                <path d="M274.99,1094.67L326.054,1094.67" style="fill:none;stroke:rgb(173,185,201);stroke-width:11.56px;"/>
                            </g>
                        </g>
                        <g transform="matrix(1.56666,0,0,1,-171.338,-1002)">
                            <path d="M274.99,1094.67L326.054,1094.67" style="fill:none;stroke:rgb(173,185,201);stroke-width:7.57px;"/>
                        </g>
                    </g>
                    <g transform="matrix(0.798705,0,0,1,78.7535,52.2097)">
                        <g transform="matrix(1,0,0,1,5.68434e-13,2.57143)">
                            <g transform="matrix(1.4428,0,0,1,-130.951,-954.543)">
                                <path d="M274.99,1094.67L326.054,1094.67" style="fill:none;stroke:rgb(83,101,125);stroke-width:7.94px;"/>
                            </g>
                            <g transform="matrix(0.78079,0,0,1,-0.239297,-954.543)">
                                <path d="M274.99,1094.67L326.054,1094.67" style="fill:none;stroke:rgb(83,101,125);stroke-width:10.29px;"/>
                            </g>
                        </g>
                        <g transform="matrix(2.44807,0,0,1,-458.723,-968.647)">
                            <path d="M274.99,1094.67L326.054,1094.67" style="fill:none;stroke:rgb(83,101,125);stroke-width:5.52px;"/>
                        </g>
                        <g transform="matrix(1.5626,0,0,1,-190.991,0.857143)">
                            <g transform="matrix(0.930443,0,0,1,3.6158,-986.181)">
                                <path d="M274.99,1094.67L326.054,1094.67" style="fill:none;stroke:rgb(83,101,125);stroke-width:7.91px;"/>
                            </g>
                            <g transform="matrix(0.396171,0,0,1,210.305,-986.181)">
                                <path d="M274.99,1094.67L326.054,1094.67" style="fill:none;stroke:rgb(83,101,125);stroke-width:10.87px;"/>
                            </g>
                        </g>
                    </g>
                </g>
            </g>
        </g>
    </g>
</svg>
