<?xml version="1.0" encoding="UTF-8" standalone="no"?><!DOCTYPE svg PUBLIC "-//W3C//DTD SVG 1.1//EN" "http://www.w3.org/Graphics/SVG/1.1/DTD/svg11.dtd"><svg width="100%" height="100%" viewBox="0 0 210 235" version="1.1" xmlns="http://www.w3.org/2000/svg" xmlns:xlink="http://www.w3.org/1999/xlink" xml:space="preserve" style="fill-rule:evenodd;clip-rule:evenodd;stroke-linecap:square;stroke-linejoin:round;stroke-miterlimit:1.5;"><rect id="churchyard.-memorial.-icon" x="0" y="0.001" width="210" height="235" style="fill:none;"/><clipPath id="_clip1"><rect x="0" y="0.001" width="210" height="235"/></clipPath><g clip-path="url(#_clip1)"><g><path d="M25.776,76.803c2.186,-41.838 36.847,-75.136 79.224,-75.136c42.378,0 77.04,33.299 79.224,75.138l0.109,0.057l0,158.138l-158.666,0l0,-158.138l0.109,-0.059Z" style="fill:#c9d3df;"/><path d="M105.248,1.667l0.248,0.001l0.248,0.002l0.248,0.003l0.247,0.003l0.248,0.004l0.247,0.005l0.247,0.006l0.246,0.007l0.247,0.007l0.246,0.008l0.247,0.008l0.246,0.01l0.245,0.01l0.246,0.011l0.246,0.012l0.245,0.012l0.245,0.013l0.245,0.014l0.244,0.015l0.245,0.015l0.244,0.016l0.488,0.035l0.487,0.037l0.486,0.041l0.486,0.043l0.484,0.046l0.484,0.049l0.483,0.052l0.482,0.055l0.481,0.058l0.481,0.06l0.479,0.064l0.478,0.066l0.478,0.069l0.477,0.072l0.475,0.075l0.475,0.078l0.474,0.08l0.473,0.084l0.472,0.086l0.471,0.089l0.47,0.091l0.469,0.095l0.468,0.097l0.467,0.1l0.466,0.102l0.464,0.106l0.464,0.108l0.463,0.111l0.462,0.113l0.461,0.116l0.459,0.119l0.459,0.122l0.458,0.124l0.456,0.127l0.455,0.13l0.454,0.132l0.454,0.135l0.451,0.137l0.451,0.14l0.45,0.143l0.448,0.145l0.448,0.148l0.446,0.15l0.445,0.153l0.444,0.156l0.442,0.158l0.442,0.161l0.44,0.163l0.439,0.166l0.437,0.168l0.437,0.171l0.435,0.173l0.434,0.176l0.432,0.178l0.432,0.18l0.43,0.184l0.429,0.185l0.427,0.188l0.426,0.191l0.425,0.193l0.423,0.195l0.423,0.198l0.42,0.2l0.42,0.203l0.418,0.204l0.416,0.208l0.416,0.209l0.414,0.213l0.412,0.214l0.411,0.217l0.41,0.219l0.408,0.221l0.407,0.224l0.405,0.226l0.404,0.228l0.402,0.231l0.401,0.232l0.4,0.236l0.397,0.237l0.397,0.24l0.395,0.242l0.393,0.244l0.392,0.246l0.39,0.249l0.389,0.25l0.387,0.253l0.386,0.255l0.384,0.258l0.383,0.259l0.38,0.262l0.38,0.264l0.377,0.266l0.376,0.268l0.375,0.27l0.373,0.272l0.371,0.275l0.369,0.276l0.368,0.279l0.366,0.281l0.365,0.283l0.363,0.285l0.361,0.287l0.359,0.288l0.358,0.292l0.356,0.293l0.354,0.295l0.353,0.297l0.35,0.299l0.349,0.301l0.347,0.303l0.346,0.305l0.343,0.307l0.342,0.309l0.34,0.311l0.339,0.313l0.336,0.315l0.335,0.316l0.332,0.319l0.331,0.321l0.329,0.322l0.327,0.324l0.326,0.327l0.323,0.328l0.322,0.33l0.319,0.331l0.318,0.334l0.316,0.336l0.313,0.337l0.312,0.339l0.31,0.341l0.308,0.343l0.306,0.344l0.304,0.346l0.302,0.349l0.301,0.349l0.298,0.352l0.296,0.353l0.294,0.355l0.292,0.357l0.29,0.359l0.288,0.36l0.286,0.362l0.284,0.364l0.281,0.365l0.28,0.367l0.278,0.369l0.275,0.37l0.274,0.372l0.271,0.374l0.269,0.375l0.267,0.377l0.265,0.378l0.263,0.38l0.26,0.382l0.259,0.383l0.256,0.385l0.254,0.387l0.252,0.388l0.25,0.389l0.247,0.391l0.245,0.393l0.243,0.394l0.241,0.396l0.239,0.397l0.236,0.398l0.234,0.401l0.232,0.401l0.229,0.403l0.227,0.405l0.225,0.406l0.223,0.407l0.22,0.409l0.218,0.411l0.215,0.412l0.213,0.413l0.211,0.414l0.209,0.416l0.206,0.418l0.204,0.418l0.201,0.42l0.199,0.422l0.197,0.423l0.194,0.424l0.191,0.425l0.19,0.427l0.187,0.428l0.184,0.43l0.182,0.43l0.179,0.432l0.177,0.434l0.175,0.434l0.172,0.436l0.169,0.437l0.167,0.438l0.165,0.44l0.162,0.44l0.159,0.442l0.157,0.444l0.154,0.444l0.152,0.445l0.149,0.447l0.147,0.448l0.144,0.449l0.141,0.45l0.139,0.452l0.136,0.452l0.133,0.454l0.131,0.455l0.128,0.456l0.126,0.457l0.123,0.458l0.12,0.459l0.118,0.46l0.115,0.461l0.112,0.463l0.109,0.463l0.107,0.464l0.104,0.466l0.101,0.466l0.099,0.468l0.096,0.468l0.093,0.47l0.09,0.47l0.087,0.472l0.085,0.472l0.082,0.473l0.079,0.475l0.076,0.475l0.074,0.476l0.07,0.477l0.068,0.478l0.065,0.479l0.062,0.48l0.059,0.481l0.057,0.481l0.053,0.483l0.051,0.483l0.047,0.484l0.045,0.485l0.042,0.486l0.039,0.487l0.036,0.487l0.017,0.244l0.016,0.245l0.015,0.244l0.015,0.245l0.014,0.245l0.013,0.245l0.109,0.057l0,158.138l-158.666,0l0,-158.138l0.109,-0.059l0.013,-0.245l0.014,-0.245l0.015,-0.245l0.015,-0.244l0.017,-0.245l0.016,-0.244l0.036,-0.487l0.039,-0.487l0.042,-0.486l0.045,-0.485l0.048,-0.484l0.05,-0.483l0.054,-0.483l0.056,-0.481l0.059,-0.481l0.062,-0.48l0.065,-0.479l0.068,-0.478l0.071,-0.477l0.073,-0.476l0.076,-0.475l0.079,-0.474l0.082,-0.474l0.085,-0.472l0.088,-0.472l0.09,-0.47l0.093,-0.47l0.096,-0.468l0.098,-0.468l0.101,-0.466l0.104,-0.465l0.107,-0.465l0.11,-0.463l0.112,-0.463l0.115,-0.461l0.117,-0.46l0.121,-0.459l0.122,-0.458l0.126,-0.457l0.128,-0.456l0.131,-0.455l0.134,-0.453l0.136,-0.453l0.139,-0.451l0.141,-0.45l0.144,-0.449l0.147,-0.448l0.149,-0.447l0.151,-0.446l0.155,-0.444l0.157,-0.443l0.159,-0.442l0.162,-0.441l0.164,-0.439l0.167,-0.439l0.17,-0.437l0.172,-0.435l0.174,-0.435l0.177,-0.433l0.18,-0.432l0.182,-0.431l0.184,-0.429l0.187,-0.428l0.189,-0.427l0.192,-0.426l0.194,-0.424l0.197,-0.422l0.199,-0.422l0.201,-0.42l0.204,-0.419l0.206,-0.417l0.208,-0.416l0.211,-0.415l0.213,-0.413l0.216,-0.412l0.218,-0.41l0.22,-0.409l0.223,-0.407l0.225,-0.406l0.227,-0.405l0.229,-0.403l0.232,-0.402l0.234,-0.4l0.236,-0.398l0.239,-0.398l0.24,-0.395l0.243,-0.394l0.246,-0.393l0.247,-0.391l0.25,-0.39l0.252,-0.387l0.254,-0.387l0.256,-0.385l0.258,-0.383l0.261,-0.382l0.263,-0.38l0.265,-0.378l0.267,-0.377l0.269,-0.375l0.271,-0.374l0.274,-0.372l0.275,-0.37l0.278,-0.369l0.279,-0.367l0.282,-0.365l0.284,-0.364l0.286,-0.362l0.288,-0.36l0.29,-0.359l0.292,-0.356l0.294,-0.356l0.296,-0.353l0.298,-0.351l0.3,-0.35l0.302,-0.348l0.304,-0.347l0.307,-0.344l0.308,-0.343l0.309,-0.341l0.312,-0.339l0.314,-0.337l0.316,-0.336l0.318,-0.333l0.319,-0.332l0.322,-0.33l0.323,-0.328l0.325,-0.326l0.328,-0.325l0.329,-0.322l0.33,-0.321l0.333,-0.318l0.335,-0.317l0.336,-0.315l0.338,-0.313l0.34,-0.311l0.342,-0.309l0.344,-0.307l0.345,-0.305l0.348,-0.303l0.348,-0.301l0.351,-0.299l0.353,-0.297l0.354,-0.295l0.356,-0.293l0.358,-0.291l0.359,-0.289l0.361,-0.287l0.363,-0.285l0.364,-0.283l0.366,-0.28l0.368,-0.279l0.37,-0.277l0.371,-0.274l0.373,-0.272l0.374,-0.271l0.376,-0.268l0.378,-0.266l0.379,-0.264l0.381,-0.261l0.383,-0.26l0.384,-0.257l0.385,-0.255l0.388,-0.253l0.388,-0.251l0.391,-0.248l0.391,-0.247l0.394,-0.244l0.395,-0.242l0.396,-0.239l0.398,-0.238l0.4,-0.235l0.4,-0.233l0.403,-0.23l0.404,-0.229l0.405,-0.226l0.407,-0.223l0.408,-0.222l0.41,-0.219l0.411,-0.216l0.412,-0.215l0.414,-0.212l0.415,-0.209l0.417,-0.208l0.418,-0.205l0.419,-0.202l0.421,-0.2l0.422,-0.198l0.424,-0.196l0.424,-0.192l0.427,-0.191l0.427,-0.188l0.429,-0.186l0.43,-0.183l0.431,-0.18l0.433,-0.179l0.434,-0.175l0.435,-0.174l0.436,-0.17l0.438,-0.169l0.439,-0.165l0.44,-0.163l0.441,-0.161l0.443,-0.158l0.444,-0.156l0.445,-0.153l0.446,-0.15l0.447,-0.148l0.448,-0.145l0.45,-0.143l0.451,-0.14l0.452,-0.137l0.453,-0.135l0.454,-0.132l0.455,-0.13l0.457,-0.127l0.457,-0.124l0.459,-0.122l0.46,-0.119l0.46,-0.116l0.462,-0.113l0.463,-0.111l0.464,-0.108l0.465,-0.106l0.466,-0.102l0.467,-0.1l0.468,-0.097l0.469,-0.095l0.47,-0.091l0.471,-0.089l0.471,-0.086l0.473,-0.084l0.474,-0.08l0.475,-0.078l0.476,-0.075l0.476,-0.072l0.478,-0.069l0.478,-0.066l0.48,-0.064l0.48,-0.06l0.481,-0.058l0.482,-0.055l0.483,-0.052l0.484,-0.049l0.484,-0.046l0.486,-0.043l0.486,-0.041l0.487,-0.037l0.488,-0.035l0.244,-0.016l0.245,-0.015l0.244,-0.015l0.245,-0.014l0.245,-0.013l0.246,-0.012l0.245,-0.012l0.246,-0.011l0.245,-0.01l0.246,-0.01l0.247,-0.008l0.246,-0.008l0.247,-0.007l0.246,-0.007l0.247,-0.006l0.247,-0.005l0.248,-0.004l0.247,-0.003l0.248,-0.003l0.248,-0.002l0.248,-0.001l0.248,0l0.248,0Zm-0.465,10l-0.218,0.001l-0.217,0.002l-0.217,0.002l-0.216,0.003l-0.217,0.004l-0.217,0.004l-0.216,0.005l-0.216,0.006l-0.216,0.006l-0.216,0.007l-0.215,0.008l-0.216,0.008l-0.215,0.009l-0.215,0.009l-0.215,0.011l-0.215,0.01l-0.214,0.012l-0.214,0.012l-0.214,0.013l-0.214,0.013l-0.206,0.014l-0.434,0.031l-0.426,0.032l-0.426,0.036l-0.424,0.038l-0.424,0.04l-0.423,0.043l-0.422,0.045l-0.421,0.048l-0.421,0.051l-0.42,0.053l-0.418,0.055l-0.418,0.058l-0.418,0.061l-0.416,0.063l-0.416,0.065l-0.414,0.068l-0.414,0.07l-0.413,0.073l-0.412,0.075l-0.411,0.078l-0.411,0.08l-0.409,0.082l-0.409,0.085l-0.408,0.087l-0.406,0.09l-0.406,0.092l-0.405,0.094l-0.404,0.097l-0.403,0.099l-0.403,0.101l-0.401,0.104l-0.4,0.106l-0.399,0.109l-0.399,0.11l-0.397,0.114l-0.397,0.115l-0.395,0.118l-0.395,0.12l-0.393,0.122l-0.393,0.124l-0.391,0.127l-0.391,0.129l-0.389,0.132l-0.389,0.133l-0.387,0.136l-0.386,0.138l-0.386,0.14l-0.384,0.143l-0.383,0.144l-0.382,0.147l-0.381,0.149l-0.38,0.152l-0.379,0.153l-0.378,0.156l-0.376,0.157l-0.376,0.16l-0.374,0.162l-0.373,0.164l-0.373,0.167l-0.371,0.168l-0.369,0.171l-0.369,0.173l-0.367,0.174l-0.367,0.177l-0.365,0.179l-0.364,0.181l-0.363,0.184l-0.361,0.185l-0.361,0.187l-0.359,0.189l-0.358,0.192l-0.356,0.193l-0.356,0.196l-0.354,0.197l-0.353,0.2l-0.351,0.201l-0.351,0.204l-0.349,0.205l-0.348,0.208l-0.346,0.209l-0.345,0.211l-0.344,0.214l-0.343,0.215l-0.341,0.217l-0.34,0.22l-0.338,0.221l-0.337,0.223l-0.336,0.225l-0.335,0.227l-0.333,0.229l-0.331,0.23l-0.33,0.233l-0.329,0.234l-0.328,0.237l-0.326,0.238l-0.324,0.24l-0.324,0.242l-0.321,0.243l-0.32,0.246l-0.319,0.247l-0.318,0.249l-0.315,0.251l-0.315,0.253l-0.313,0.255l-0.311,0.256l-0.31,0.258l-0.308,0.26l-0.307,0.262l-0.305,0.263l-0.304,0.265l-0.302,0.267l-0.301,0.268l-0.299,0.271l-0.297,0.272l-0.296,0.274l-0.294,0.275l-0.293,0.277l-0.291,0.279l-0.29,0.28l-0.287,0.282l-0.287,0.284l-0.284,0.285l-0.283,0.288l-0.282,0.288l-0.279,0.29l-0.278,0.292l-0.276,0.294l-0.275,0.295l-0.273,0.297l-0.271,0.298l-0.269,0.299l-0.268,0.302l-0.266,0.303l-0.264,0.304l-0.263,0.307l-0.261,0.307l-0.259,0.309l-0.257,0.311l-0.255,0.312l-0.254,0.314l-0.252,0.315l-0.25,0.316l-0.248,0.318l-0.247,0.32l-0.244,0.321l-0.243,0.322l-0.241,0.324l-0.239,0.325l-0.238,0.327l-0.235,0.328l-0.233,0.329l-0.232,0.332l-0.23,0.332l-0.228,0.334l-0.225,0.335l-0.225,0.336l-0.222,0.338l-0.22,0.339l-0.218,0.341l-0.216,0.342l-0.215,0.343l-0.212,0.344l-0.211,0.346l-0.208,0.347l-0.207,0.349l-0.204,0.349l-0.202,0.351l-0.201,0.353l-0.199,0.353l-0.196,0.355l-0.194,0.356l-0.193,0.357l-0.19,0.359l-0.189,0.359l-0.186,0.361l-0.184,0.362l-0.182,0.364l-0.18,0.364l-0.178,0.366l-0.176,0.367l-0.174,0.368l-0.172,0.369l-0.169,0.371l-0.168,0.371l-0.165,0.373l-0.163,0.374l-0.161,0.375l-0.159,0.376l-0.157,0.377l-0.154,0.378l-0.152,0.38l-0.151,0.38l-0.148,0.382l-0.145,0.382l-0.144,0.384l-0.141,0.385l-0.14,0.386l-0.136,0.386l-0.135,0.388l-0.133,0.389l-0.13,0.39l-0.128,0.391l-0.125,0.392l-0.124,0.393l-0.121,0.394l-0.119,0.395l-0.116,0.396l-0.115,0.397l-0.111,0.398l-0.11,0.399l-0.107,0.4l-0.105,0.401l-0.103,0.401l-0.1,0.403l-0.098,0.403l-0.096,0.405l-0.093,0.405l-0.091,0.407l-0.088,0.407l-0.086,0.408l-0.084,0.409l-0.081,0.41l-0.079,0.411l-0.076,0.412l-0.074,0.412l-0.072,0.413l-0.069,0.415l-0.067,0.415l-0.064,0.416l-0.061,0.417l-0.06,0.417l-0.056,0.419l-0.055,0.419l-0.051,0.42l-0.05,0.421l-0.046,0.422l-0.045,0.422l-0.041,0.424l-0.039,0.423l-0.037,0.425l-0.034,0.426l-0.032,0.434l-0.014,0.206l-0.014,0.214l-0.014,0.213l-0.013,0.215l-0.012,0.214l-0.107,2.002l0,145.888l138.666,0l0,-145.888l-0.107,-2.001l-0.012,-0.214l-0.013,-0.214l-0.014,-0.213l-0.014,-0.214l-0.014,-0.206l-0.032,-0.434l-0.034,-0.426l-0.037,-0.424l-0.039,-0.425l-0.041,-0.423l-0.044,-0.423l-0.047,-0.421l-0.049,-0.421l-0.052,-0.42l-0.054,-0.42l-0.057,-0.418l-0.059,-0.418l-0.062,-0.417l-0.064,-0.416l-0.067,-0.415l-0.069,-0.414l-0.071,-0.413l-0.074,-0.413l-0.077,-0.412l-0.079,-0.41l-0.081,-0.41l-0.083,-0.409l-0.087,-0.409l-0.088,-0.407l-0.091,-0.406l-0.093,-0.406l-0.095,-0.404l-0.098,-0.404l-0.101,-0.402l-0.102,-0.402l-0.105,-0.401l-0.108,-0.4l-0.109,-0.399l-0.112,-0.397l-0.114,-0.398l-0.117,-0.395l-0.119,-0.395l-0.121,-0.395l-0.123,-0.392l-0.126,-0.393l-0.128,-0.39l-0.13,-0.39l-0.132,-0.389l-0.135,-0.388l-0.137,-0.387l-0.139,-0.386l-0.142,-0.385l-0.143,-0.383l-0.146,-0.383l-0.148,-0.382l-0.15,-0.38l-0.152,-0.38l-0.155,-0.378l-0.157,-0.377l-0.158,-0.376l-0.161,-0.375l-0.164,-0.374l-0.165,-0.373l-0.167,-0.371l-0.17,-0.37l-0.171,-0.37l-0.174,-0.368l-0.176,-0.367l-0.178,-0.365l-0.18,-0.365l-0.182,-0.363l-0.185,-0.363l-0.186,-0.361l-0.188,-0.359l-0.19,-0.359l-0.193,-0.357l-0.194,-0.356l-0.197,-0.355l-0.198,-0.353l-0.201,-0.353l-0.202,-0.351l-0.205,-0.349l-0.206,-0.349l-0.209,-0.347l-0.21,-0.346l-0.213,-0.344l-0.214,-0.343l-0.216,-0.342l-0.219,-0.341l-0.22,-0.339l-0.222,-0.338l-0.224,-0.336l-0.226,-0.335l-0.228,-0.334l-0.229,-0.333l-0.232,-0.33l-0.234,-0.33l-0.235,-0.328l-0.237,-0.327l-0.239,-0.325l-0.241,-0.324l-0.243,-0.323l-0.245,-0.321l-0.246,-0.319l-0.248,-0.318l-0.251,-0.317l-0.251,-0.315l-0.254,-0.313l-0.255,-0.313l-0.258,-0.31l-0.259,-0.309l-0.26,-0.308l-0.263,-0.306l-0.264,-0.304l-0.266,-0.303l-0.268,-0.302l-0.269,-0.3l-0.271,-0.298l-0.274,-0.297l-0.274,-0.295l-0.276,-0.293l-0.278,-0.292l-0.28,-0.29l-0.281,-0.289l-0.283,-0.287l-0.285,-0.285l-0.286,-0.284l-0.288,-0.282l-0.289,-0.281l-0.291,-0.278l-0.293,-0.277l-0.294,-0.276l-0.296,-0.274l-0.298,-0.272l-0.299,-0.27l-0.3,-0.269l-0.302,-0.266l-0.304,-0.266l-0.305,-0.263l-0.307,-0.262l-0.309,-0.26l-0.309,-0.257l-0.312,-0.257l-0.313,-0.255l-0.314,-0.252l-0.316,-0.251l-0.317,-0.249l-0.319,-0.248l-0.32,-0.245l-0.322,-0.244l-0.323,-0.242l-0.325,-0.24l-0.326,-0.238l-0.327,-0.236l-0.329,-0.235l-0.33,-0.232l-0.332,-0.231l-0.333,-0.229l-0.334,-0.227l-0.336,-0.225l-0.337,-0.223l-0.339,-0.221l-0.34,-0.219l-0.341,-0.218l-0.342,-0.215l-0.344,-0.213l-0.345,-0.212l-0.347,-0.209l-0.348,-0.208l-0.349,-0.205l-0.35,-0.203l-0.352,-0.202l-0.353,-0.2l-0.354,-0.197l-0.355,-0.195l-0.357,-0.194l-0.358,-0.191l-0.359,-0.19l-0.36,-0.187l-0.362,-0.185l-0.363,-0.183l-0.363,-0.181l-0.366,-0.179l-0.366,-0.177l-0.367,-0.175l-0.369,-0.173l-0.37,-0.171l-0.371,-0.168l-0.372,-0.166l-0.373,-0.165l-0.375,-0.162l-0.375,-0.159l-0.377,-0.158l-0.378,-0.156l-0.378,-0.153l-0.38,-0.152l-0.381,-0.149l-0.383,-0.147l-0.383,-0.144l-0.384,-0.143l-0.385,-0.14l-0.387,-0.138l-0.387,-0.136l-0.388,-0.133l-0.39,-0.132l-0.39,-0.129l-0.392,-0.127l-0.392,-0.124l-0.394,-0.122l-0.395,-0.12l-0.395,-0.118l-0.396,-0.115l-0.398,-0.113l-0.398,-0.111l-0.4,-0.109l-0.4,-0.106l-0.401,-0.104l-0.402,-0.101l-0.403,-0.099l-0.405,-0.097l-0.405,-0.094l-0.405,-0.092l-0.407,-0.09l-0.408,-0.087l-0.409,-0.085l-0.409,-0.082l-0.41,-0.08l-0.411,-0.078l-0.413,-0.075l-0.413,-0.073l-0.414,-0.07l-0.414,-0.068l-0.416,-0.065l-0.416,-0.063l-0.417,-0.061l-0.418,-0.058l-0.419,-0.055l-0.42,-0.053l-0.421,-0.051l-0.421,-0.048l-0.422,-0.045l-0.423,-0.043l-0.424,-0.04l-0.424,-0.038l-0.425,-0.036l-0.426,-0.032l-0.435,-0.031l-0.206,-0.014l-0.214,-0.013l-0.214,-0.013l-0.214,-0.012l-0.215,-0.012l-0.214,-0.01l-0.215,-0.011l-0.215,-0.009l-0.215,-0.009l-0.216,-0.008l-0.215,-0.008l-0.216,-0.007l-0.216,-0.006l-0.216,-0.006l-0.216,-0.005l-0.217,-0.004l-0.216,-0.004l-0.217,-0.003l-0.217,-0.002l-0.217,-0.002l-0.218,-0.001l-0.217,0l-0.217,0Z" style="fill:#adb9c9;"/><rect x="0" y="176.667" width="210" height="58.333" style="fill:#c9d3df;"/><path d="M210,235l-210,0l0,-58.333l210,0l0,58.333Zm-200,-48.333l0,38.333l190,0l0,-38.333l-190,0Z" style="fill:#adb9c9;"/><g><rect x="64.333" y="84.945" width="81.333" height="10" style="fill:#8393a7;"/><rect x="48.152" y="104.4" width="113.695" height="10" style="fill:#8393a7;"/><rect x="76.165" y="124.945" width="58.887" height="10" style="fill:#8393a7;"/></g><g><path d="M105,35.489l0,35" style="fill:none;stroke:#8393a7;stroke-width:10px;"/><path d="M93.333,47.156l23.334,0" style="fill:none;stroke:#8393a7;stroke-width:10px;"/></g></g></g></svg>