<?xml version="1.0" encoding="UTF-8" standalone="no"?><!DOCTYPE svg PUBLIC "-//W3C//DTD SVG 1.1//EN" "http://www.w3.org/Graphics/SVG/1.1/DTD/svg11.dtd"><svg width="100%" height="100%" viewBox="0 0 210 235" version="1.1" xmlns="http://www.w3.org/2000/svg" xmlns:xlink="http://www.w3.org/1999/xlink" xml:space="preserve" style="fill-rule:evenodd;clip-rule:evenodd;stroke-linejoin:round;stroke-miterlimit:1.41421;"><rect id="clean.-and.-restore.-headstone.-icon" x="0" y="0" width="210" height="235" style="fill:none;"/><clipPath id="_clip1"><rect x="0" y="0" width="210" height="235"/></clipPath><g clip-path="url(#_clip1)"><g><path d="M185,26.815l-185,208.184l0,0l0,-60l25,0l0,-148.184c8.286,-3.868 16.56,-7.773 24.976,-11.357c4.011,-1.708 8.057,-3.333 12.134,-4.879c4.236,-1.607 8.506,-3.128 12.818,-4.52c2.816,-0.91 5.651,-1.763 8.507,-2.54c2.555,-0.694 5.127,-1.326 7.719,-1.866c2.098,-0.437 4.209,-0.814 6.332,-1.101c1.886,-0.255 3.784,-0.439 5.686,-0.515c0.73,-0.03 1.46,-0.039 2.191,-0.036c0.612,0.007 1.224,0.023 1.835,0.052c1.909,0.09 3.812,0.287 5.704,0.553c2.265,0.318 4.515,0.735 6.75,1.218c2.595,0.561 5.171,1.21 7.729,1.92c2.715,0.752 5.411,1.573 8.09,2.444c4.176,1.357 8.314,2.834 12.419,4.391c4.077,1.546 8.123,3.171 12.135,4.879c8.415,3.584 16.689,7.489 24.975,11.357Z" style="fill:#adb9c9;"/><path d="M44.432,184.999l-34.432,38.747l0,-38.747l34.432,0Z" style="fill:#c9d3df;"/><path d="M53.318,174.999l-18.318,0l0,-141.816l0.611,-0.284c6.061,-2.821 12.132,-5.621 18.282,-8.24c3.889,-1.656 7.812,-3.231 11.763,-4.73c4.205,-1.595 8.443,-3.103 12.725,-4.476c2.543,-0.816 5.1,-1.583 7.676,-2.283c2.242,-0.61 4.498,-1.168 6.77,-1.65c1.764,-0.374 3.537,-0.703 5.321,-0.963c1.701,-0.247 3.411,-0.434 5.128,-0.515c0.482,-0.023 0.963,-0.036 1.446,-0.042c0.279,-0.001 0.278,-0.001 0.557,0c0.482,0.006 0.963,0.019 1.445,0.042c1.602,0.076 3.2,0.244 4.788,0.467c1.775,0.249 3.54,0.569 5.295,0.934c2.396,0.499 4.774,1.085 7.136,1.727c2.318,0.629 4.621,1.314 6.91,2.039c4.313,1.365 8.581,2.869 12.814,4.464c3.886,1.464 7.745,3.001 11.57,4.617c5.267,2.225 10.473,4.589 15.663,6.988c1.367,0.633 2.734,1.268 4.1,1.905l0,4.885l-121.682,136.931Z" style="fill:#c9d3df;"/><path d="M78.457,146.999l-28.457,0l0,-10l37.32,0l-8.863,10Z" style="fill:#adb9c9;"/><path d="M96.183,126.999l-41.183,0l0,-10l50.045,0l-8.862,10Z" style="fill:#adb9c9;"/><path d="M113.908,106.999l-43.908,0l0,-10l52.77,0l-8.862,10Z" style="fill:#adb9c9;"/><path d="M131.518,86.999l-69.018,0l0,-10l77.996,0l-8.978,10Z" style="fill:#adb9c9;"/><path d="M149.358,66.999l-99.358,0l0,-10l108.177,0l-8.819,10Z" style="fill:#adb9c9;"/><rect x="75" y="36.999" width="60" height="10" style="fill:#adb9c9;"/><path d="M185,174.999l25,0l0,60l-210,0l185,-208.184l0,148.184Z" style="fill:#3d4d65;"/><path d="M44.702,184.999l155.298,0l0,40l-191.063,-0.056l35.765,-39.944Z" style="fill:#374355;"/><path d="M174.441,38.698l0.559,136.301l-121.358,0l120.799,-136.301Z" style="fill:#374355;"/><path d="M160,146.999l-81.543,0l8.863,-10l72.68,0l0,10Z" style="fill:#3d4d65;"/><path d="M155,126.999l-58.817,0l8.817,-10l50,0l0,10Z" style="fill:#3d4d65;"/><path d="M140,106.999l-26.092,0l8.862,-10l17.23,0l0,10Z" style="fill:#3d4d65;"/><path d="M147.5,86.999l-15.867,0l8.863,-10l7.004,0l0,10Z" style="fill:#3d4d65;"/><path d="M160,66.999l-10.642,0l8.863,-10l1.779,0l0,10Z" style="fill:#3d4d65;"/></g></g></svg>