<?xml version="1.0" encoding="UTF-8" standalone="no"?><!DOCTYPE svg PUBLIC "-//W3C//DTD SVG 1.1//EN" "http://www.w3.org/Graphics/SVG/1.1/DTD/svg11.dtd"><svg width="100%" height="100%" viewBox="0 0 210 235" version="1.1" xmlns="http://www.w3.org/2000/svg" xmlns:xlink="http://www.w3.org/1999/xlink" xml:space="preserve" style="fill-rule:evenodd;clip-rule:evenodd;stroke-linejoin:round;stroke-miterlimit:1.41421;"><rect id="lawn.-memorial.-icon" x="0" y="0.001" width="210" height="235" style="fill:none;"/><clipPath id="_clip1"><rect x="0" y="0.001" width="210" height="235"/></clipPath><g clip-path="url(#_clip1)"><g><path d="M25.667,24.222c0,0 5.456,-23.388 47.833,-23.388c49.631,0 61.056,20.423 110.833,23.388l0,209.945l-158.666,0l0,-209.945Z" style="fill:#c9d3df;"/><path d="M74.08,0.835l0.576,0.002l0.573,0.005l0.57,0.006l0.566,0.009l0.563,0.01l0.559,0.012l0.556,0.013l0.553,0.016l0.55,0.017l0.546,0.019l0.543,0.02l0.54,0.023l0.537,0.024l0.534,0.025l0.531,0.028l0.527,0.029l0.525,0.03l0.522,0.033l0.518,0.034l0.516,0.035l0.513,0.037l0.51,0.039l0.507,0.04l0.504,0.042l0.501,0.043l0.499,0.045l0.495,0.046l0.493,0.048l0.491,0.049l0.487,0.051l0.485,0.052l0.483,0.054l0.48,0.055l0.477,0.056l0.474,0.058l0.473,0.059l0.469,0.061l0.468,0.062l0.464,0.063l0.463,0.065l0.46,0.066l0.458,0.067l0.455,0.068l0.453,0.07l0.451,0.071l0.448,0.072l0.447,0.074l0.444,0.075l0.442,0.076l0.44,0.077l0.438,0.078l0.435,0.08l0.434,0.08l0.432,0.082l0.429,0.083l0.428,0.084l0.426,0.085l0.424,0.086l0.422,0.088l0.42,0.088l0.418,0.089l0.416,0.091l0.415,0.091l0.413,0.093l0.411,0.093l0.41,0.094l0.408,0.096l0.406,0.096l0.405,0.097l0.403,0.098l0.401,0.1l0.4,0.099l0.399,0.101l0.397,0.102l0.395,0.103l0.394,0.103l0.393,0.104l0.391,0.105l0.391,0.106l0.388,0.107l0.388,0.107l0.386,0.108l0.385,0.109l0.384,0.11l0.382,0.11l0.382,0.111l0.38,0.112l0.379,0.112l0.379,0.113l0.377,0.114l0.376,0.115l0.375,0.115l0.375,0.115l0.373,0.116l0.372,0.117l0.372,0.118l0.371,0.117l0.369,0.119l0.37,0.119l0.735,0.239l0.734,0.242l0.73,0.243l0.728,0.245l0.726,0.247l0.724,0.248l0.723,0.25l0.721,0.251l0.719,0.252l0.719,0.253l0.717,0.254l0.717,0.255l1.433,0.512l1.433,0.514l1.435,0.516l1.439,0.516l0.721,0.258l0.722,0.258l0.725,0.257l0.726,0.257l0.729,0.257l0.731,0.256l0.734,0.255l0.737,0.254l0.74,0.253l0.743,0.252l0.746,0.251l0.751,0.25l0.754,0.248l0.759,0.246l0.381,0.123l0.382,0.123l0.383,0.121l0.384,0.122l0.386,0.121l0.387,0.12l0.388,0.12l0.389,0.12l0.391,0.119l0.392,0.118l0.393,0.118l0.395,0.118l0.396,0.116l0.398,0.117l0.399,0.115l0.401,0.115l0.402,0.115l0.404,0.114l0.405,0.113l0.407,0.112l0.409,0.112l0.411,0.111l0.412,0.11l0.413,0.11l0.416,0.109l0.417,0.108l0.419,0.108l0.421,0.106l0.423,0.106l0.425,0.105l0.427,0.104l0.428,0.104l0.431,0.102l0.433,0.102l0.434,0.101l0.437,0.1l0.439,0.099l0.441,0.098l0.443,0.098l0.445,0.096l0.448,0.095l0.449,0.095l0.452,0.093l0.454,0.093l0.457,0.091l0.459,0.091l0.461,0.089l0.463,0.088l0.466,0.088l0.469,0.086l0.471,0.085l0.473,0.084l0.476,0.083l0.478,0.082l0.482,0.081l0.483,0.079l0.487,0.078l0.488,0.078l0.492,0.076l0.495,0.074l0.497,0.074l0.5,0.072l0.502,0.072l0.506,0.069l0.508,0.069l0.511,0.067l0.515,0.066l0.517,0.065l0.52,0.063l0.523,0.062l0.526,0.061l0.529,0.059l0.532,0.058l0.535,0.057l0.539,0.055l0.541,0.053l0.545,0.053l0.548,0.05l0.551,0.05l0.555,0.047l0.558,0.047l0.561,0.045l0.564,0.043l0.568,0.042l0.571,0.04l0.575,0.039l0.578,0.037l0.581,0.035l0,209.945l-158.666,0l0,-209.945l0.017,-0.067l0.022,-0.082l0.032,-0.113l0.044,-0.144l0.054,-0.172l0.032,-0.096l0.036,-0.104l0.038,-0.11l0.042,-0.117l0.045,-0.123l0.049,-0.129l0.052,-0.136l0.056,-0.141l0.06,-0.148l0.064,-0.153l0.068,-0.159l0.072,-0.164l0.076,-0.17l0.08,-0.175l0.084,-0.18l0.089,-0.184l0.094,-0.19l0.098,-0.195l0.103,-0.199l0.107,-0.203l0.113,-0.208l0.117,-0.212l0.123,-0.215l0.127,-0.22l0.133,-0.224l0.139,-0.227l0.143,-0.23l0.149,-0.234l0.077,-0.118l0.078,-0.119l0.08,-0.12l0.081,-0.121l0.082,-0.121l0.084,-0.122l0.085,-0.122l0.087,-0.124l0.088,-0.124l0.09,-0.124l0.091,-0.126l0.093,-0.125l0.094,-0.127l0.096,-0.127l0.098,-0.128l0.099,-0.128l0.1,-0.129l0.103,-0.129l0.103,-0.13l0.106,-0.13l0.107,-0.131l0.108,-0.131l0.111,-0.131l0.112,-0.132l0.113,-0.133l0.116,-0.133l0.117,-0.133l0.118,-0.133l0.121,-0.134l0.122,-0.134l0.124,-0.135l0.126,-0.135l0.127,-0.135l0.129,-0.135l0.131,-0.136l0.133,-0.135l0.134,-0.136l0.137,-0.136l0.138,-0.137l0.14,-0.136l0.142,-0.137l0.144,-0.136l0.145,-0.137l0.148,-0.137l0.149,-0.137l0.152,-0.137l0.153,-0.137l0.155,-0.137l0.157,-0.137l0.159,-0.137l0.161,-0.137l0.163,-0.137l0.165,-0.137l0.167,-0.137l0.169,-0.136l0.171,-0.137l0.173,-0.136l0.175,-0.137l0.177,-0.136l0.179,-0.136l0.182,-0.135l0.183,-0.136l0.185,-0.135l0.188,-0.135l0.189,-0.135l0.192,-0.134l0.194,-0.135l0.196,-0.134l0.199,-0.133l0.2,-0.133l0.203,-0.133l0.204,-0.132l0.207,-0.132l0.21,-0.132l0.211,-0.131l0.214,-0.131l0.216,-0.13l0.218,-0.13l0.221,-0.129l0.222,-0.129l0.226,-0.128l0.227,-0.128l0.23,-0.127l0.232,-0.126l0.234,-0.126l0.237,-0.126l0.239,-0.124l0.242,-0.124l0.244,-0.124l0.246,-0.122l0.249,-0.122l0.251,-0.121l0.253,-0.121l0.256,-0.12l0.259,-0.119l0.261,-0.118l0.263,-0.117l0.266,-0.117l0.269,-0.115l0.271,-0.115l0.273,-0.114l0.276,-0.113l0.279,-0.112l0.281,-0.112l0.283,-0.11l0.287,-0.109l0.289,-0.109l0.291,-0.107l0.294,-0.107l0.297,-0.105l0.299,-0.105l0.302,-0.103l0.305,-0.102l0.307,-0.101l0.31,-0.1l0.313,-0.099l0.315,-0.098l0.318,-0.097l0.321,-0.095l0.324,-0.094l0.326,-0.093l0.329,-0.092l0.332,-0.091l0.335,-0.089l0.337,-0.088l0.34,-0.087l0.344,-0.086l0.345,-0.084l0.349,-0.083l0.352,-0.081l0.354,-0.08l0.358,-0.079l0.36,-0.077l0.363,-0.076l0.366,-0.075l0.369,-0.073l0.372,-0.071l0.375,-0.07l0.377,-0.069l0.381,-0.067l0.384,-0.065l0.386,-0.064l0.39,-0.063l0.393,-0.06l0.395,-0.059l0.399,-0.058l0.402,-0.056l0.405,-0.054l0.408,-0.053l0.411,-0.051l0.414,-0.049l0.417,-0.047l0.42,-0.046l0.424,-0.044l0.426,-0.042l0.43,-0.04l0.433,-0.039l0.436,-0.037l0.439,-0.035l0.442,-0.033l0.446,-0.031l0.449,-0.029l0.452,-0.028l0.455,-0.025l0.458,-0.023l0.462,-0.022l0.465,-0.02l0.468,-0.017l0.472,-0.016l0.475,-0.013l0.478,-0.012l0.481,-0.009l0.485,-0.008l0.489,-0.005l0.491,-0.003l0.495,-0.001l0.58,0.001Zm-1.032,10l-0.448,0.003l-0.444,0.004l-0.441,0.007l-0.437,0.009l-0.434,0.01l-0.43,0.012l-0.427,0.015l-0.423,0.015l-0.419,0.018l-0.416,0.02l-0.413,0.021l-0.409,0.023l-0.405,0.024l-0.403,0.026l-0.398,0.028l-0.395,0.03l-0.392,0.031l-0.388,0.033l-0.385,0.034l-0.382,0.036l-0.378,0.037l-0.375,0.039l-0.371,0.041l-0.369,0.041l-0.365,0.044l-0.361,0.045l-0.358,0.046l-0.355,0.047l-0.352,0.049l-0.348,0.05l-0.346,0.052l-0.342,0.053l-0.338,0.054l-0.336,0.056l-0.332,0.056l-0.33,0.058l-0.325,0.059l-0.323,0.061l-0.32,0.061l-0.317,0.063l-0.313,0.064l-0.311,0.065l-0.307,0.066l-0.305,0.067l-0.301,0.068l-0.298,0.069l-0.296,0.07l-0.292,0.071l-0.29,0.072l-0.286,0.073l-0.283,0.074l-0.281,0.075l-0.278,0.076l-0.274,0.077l-0.272,0.077l-0.269,0.079l-0.266,0.079l-0.264,0.08l-0.26,0.081l-0.258,0.081l-0.255,0.083l-0.252,0.083l-0.249,0.083l-0.247,0.085l-0.244,0.085l-0.242,0.085l-0.238,0.087l-0.236,0.087l-0.234,0.087l-0.23,0.089l-0.228,0.088l-0.226,0.09l-0.223,0.089l-0.221,0.091l-0.217,0.091l-0.215,0.091l-0.213,0.091l-0.211,0.093l-0.208,0.093l-0.205,0.092l-0.203,0.094l-0.201,0.094l-0.198,0.094l-0.196,0.094l-0.194,0.095l-0.191,0.096l-0.189,0.095l-0.186,0.096l-0.185,0.096l-0.182,0.096l-0.179,0.097l-0.178,0.096l-0.176,0.098l-0.172,0.097l-0.171,0.097l-0.17,0.098l-0.166,0.098l-0.165,0.097l-0.162,0.098l-0.16,0.098l-0.159,0.099l-0.156,0.098l-0.155,0.098l-0.151,0.099l-0.151,0.098l-0.148,0.099l-0.146,0.098l-0.145,0.099l-0.142,0.098l-0.141,0.099l-0.138,0.098l-0.137,0.099l-0.135,0.098l-0.133,0.099l-0.131,0.098l-0.13,0.098l-0.128,0.098l-0.125,0.098l-0.124,0.098l-0.123,0.098l-0.121,0.098l-0.119,0.097l-0.117,0.097l-0.115,0.097l-0.114,0.097l-0.113,0.097l-0.11,0.096l-0.109,0.096l-0.108,0.097l-0.106,0.096l-0.104,0.095l-0.103,0.096l-0.1,0.094l-0.1,0.095l-0.099,0.095l-0.096,0.094l-0.095,0.094l-0.094,0.093l-0.091,0.093l-0.092,0.093l-0.089,0.093l-0.088,0.092l-0.087,0.091l-0.085,0.092l-0.083,0.091l-0.082,0.09l-0.082,0.09l-0.079,0.089l-0.079,0.09l-0.077,0.089l-0.076,0.088l-0.074,0.087l-0.073,0.088l-0.072,0.087l-0.071,0.086l-0.07,0.086l-0.067,0.085l-0.067,0.084l-0.066,0.085l-0.065,0.083l-0.063,0.084l-0.063,0.082l-0.06,0.081l-0.06,0.082l-0.06,0.081l-0.057,0.08l-0.056,0.078l-0.055,0.079l-0.054,0.078l-0.053,0.078l-0.053,0.077l-0.051,0.076l-0.05,0.075l-0.049,0.074l-0.041,0.063l-0.099,0.156l-0.088,0.142l-0.085,0.139l-0.08,0.135l-0.077,0.133l-0.074,0.129l-0.068,0.124l-0.066,0.121l-0.062,0.118l-0.059,0.113l-0.055,0.11l-0.052,0.105l-0.049,0.101l-0.045,0.096l-0.009,0.021l0,198.216l138.666,0l0,-190.756l-0.56,-0.063l-0.558,-0.064l-0.555,-0.066l-0.552,-0.067l-0.549,-0.069l-0.546,-0.07l-0.543,-0.072l-0.541,-0.073l-0.537,-0.074l-0.535,-0.075l-0.532,-0.077l-0.529,-0.079l-0.526,-0.079l-0.523,-0.081l-0.521,-0.082l-0.518,-0.084l-0.515,-0.085l-0.512,-0.086l-0.511,-0.087l-0.507,-0.088l-0.504,-0.09l-0.502,-0.091l-0.5,-0.092l-0.497,-0.093l-0.494,-0.094l-0.492,-0.095l-0.49,-0.097l-0.486,-0.097l-0.485,-0.099l-0.482,-0.1l-0.48,-0.1l-0.477,-0.102l-0.475,-0.103l-0.472,-0.104l-0.47,-0.104l-0.468,-0.106l-0.466,-0.107l-0.463,-0.107l-0.461,-0.108l-0.459,-0.11l-0.457,-0.11l-0.454,-0.111l-0.452,-0.112l-0.451,-0.113l-0.448,-0.113l-0.446,-0.114l-0.444,-0.115l-0.441,-0.116l-0.44,-0.117l-0.438,-0.117l-0.435,-0.118l-0.434,-0.119l-0.432,-0.119l-0.43,-0.12l-0.427,-0.12l-0.426,-0.121l-0.424,-0.122l-0.423,-0.122l-0.42,-0.123l-0.418,-0.124l-0.417,-0.124l-0.416,-0.124l-0.413,-0.125l-0.411,-0.125l-0.41,-0.126l-0.408,-0.126l-0.406,-0.127l-0.405,-0.127l-0.403,-0.127l-0.402,-0.128l-0.4,-0.128l-0.402,-0.13l-0.788,-0.256l-0.786,-0.259l-0.781,-0.259l-0.774,-0.26l-0.77,-0.262l-0.764,-0.261l-0.759,-0.262l-0.754,-0.262l-0.75,-0.262l-0.744,-0.262l-0.741,-0.262l-0.737,-0.262l-0.733,-0.261l-0.73,-0.262l-1.445,-0.518l-1.436,-0.516l-1.425,-0.512l-1.419,-0.507l-0.703,-0.25l-0.704,-0.249l-0.703,-0.248l-0.701,-0.246l-0.701,-0.243l-0.7,-0.242l-0.699,-0.24l-0.7,-0.238l-0.699,-0.235l-0.7,-0.233l-0.701,-0.231l-0.706,-0.23l-0.347,-0.111l-0.351,-0.113l-0.352,-0.112l-0.352,-0.111l-0.352,-0.111l-0.354,-0.11l-0.353,-0.109l-0.353,-0.108l-0.355,-0.108l-0.355,-0.107l-0.356,-0.106l-0.356,-0.106l-0.357,-0.105l-0.358,-0.104l-0.358,-0.103l-0.36,-0.103l-0.359,-0.102l-0.361,-0.101l-0.362,-0.1l-0.362,-0.099l-0.364,-0.099l-0.364,-0.098l-0.366,-0.097l-0.366,-0.096l-0.368,-0.095l-0.369,-0.095l-0.37,-0.093l-0.371,-0.093l-0.372,-0.092l-0.374,-0.091l-0.374,-0.09l-0.377,-0.089l-0.377,-0.089l-0.379,-0.087l-0.38,-0.086l-0.382,-0.086l-0.384,-0.084l-0.385,-0.084l-0.386,-0.082l-0.388,-0.082l-0.39,-0.081l-0.391,-0.079l-0.393,-0.079l-0.395,-0.077l-0.396,-0.077l-0.399,-0.075l-0.4,-0.075l-0.402,-0.073l-0.405,-0.072l-0.406,-0.072l-0.408,-0.07l-0.41,-0.069l-0.412,-0.068l-0.414,-0.066l-0.417,-0.066l-0.418,-0.065l-0.421,-0.063l-0.423,-0.062l-0.426,-0.061l-0.427,-0.06l-0.43,-0.058l-0.433,-0.058l-0.434,-0.056l-0.437,-0.055l-0.44,-0.053l-0.443,-0.052l-0.444,-0.051l-0.448,-0.05l-0.45,-0.049l-0.452,-0.047l-0.456,-0.045l-0.458,-0.045l-0.461,-0.043l-0.463,-0.042l-0.467,-0.04l-0.469,-0.039l-0.473,-0.037l-0.475,-0.036l-0.478,-0.035l-0.481,-0.033l-0.484,-0.031l-0.487,-0.031l-0.491,-0.028l-0.493,-0.027l-0.497,-0.026l-0.499,-0.024l-0.503,-0.023l-0.506,-0.02l-0.51,-0.02l-0.513,-0.017l-0.516,-0.017l-0.519,-0.014l-0.523,-0.013l-0.527,-0.011l-0.53,-0.01l-0.533,-0.007l-0.537,-0.006l-0.54,-0.005l-0.544,-0.002l-0.545,-0.001l-0.455,0.001Z" style="fill:#adb9c9;"/><rect x="0" y="175.834" width="210" height="58.333" style="fill:#c9d3df;"/><path d="M210,234.167l-210,0l0,-58.333l210,0l0,58.333Zm-200,-48.333l0,38.333l190,0l0,-38.333l-190,0Z" style="fill:#adb9c9;"/><g><g><path d="M62.016,42.909l-1.892,0l0,26.271l1.892,2.059l0,-28.33Z" style="fill:#8393a7;"/><g><g><g><path d="M62.856,39.441l-1.051,0l-0.21,0.21c2.943,2.838 5.044,2.417 5.044,2.417c-1.471,-0.21 -3.047,-1.786 -3.783,-2.627Z" style="fill:#adb9c9;fill-rule:nonzero;"/><path d="M62.436,39.441l-1.471,0l-0.105,0.105c2.627,4.729 5.885,4.939 5.885,4.939c-2.102,-1.051 -3.678,-3.888 -4.309,-5.044Z" style="fill:#adb9c9;fill-rule:nonzero;"/></g><g><path d="M59.283,39.441c-0.735,0.841 -2.311,2.417 -3.678,2.627c0,0 2.102,0.421 5.045,-2.417l-0.211,-0.21l-1.156,0Z" style="fill:#adb9c9;fill-rule:nonzero;"/><path d="M59.704,39.441c-0.631,1.156 -2.312,3.993 -4.204,4.939c0,0 3.258,-0.21 5.885,-4.939l-0.21,0l-1.471,0Z" style="fill:#adb9c9;fill-rule:nonzero;"/></g></g><path d="M59.283,39.441c-0.105,0.42 -0.21,0.841 -0.21,1.261c0,2.312 0.841,3.153 1.997,3.153c1.051,0 1.997,-0.841 1.997,-3.153c0,-0.42 -0.106,-0.841 -0.211,-1.261l-3.573,0Z" style="fill:#adb9c9;fill-rule:nonzero;"/><g><path d="M61.07,34.607c-5.149,-4.414 -5.149,-11.454 0,-15.868c5.044,4.414 5.044,11.454 0,15.868Z" style="fill:#53657d;fill-rule:nonzero;"/><path d="M68.531,36.709c-0.42,0.63 -0.841,1.156 -1.471,1.471c-3.783,3.153 -9.458,2.837 -12.611,-0.42c-0.315,-0.316 -0.63,-0.736 -0.945,-1.156c-0.946,-1.471 -1.366,-3.573 -0.841,-5.57c1.366,-5.569 0.841,-7.146 0.315,-10.614c1.997,0 8.092,6.306 8.092,10.614c0,-4.729 6.095,-10.614 8.091,-10.614c-0.525,3.468 -1.05,5.045 0.316,10.614c0.42,1.997 0,4.099 -0.946,5.675Z" style="fill:#8393a7;fill-rule:nonzero;"/></g></g></g><g><g><path d="M55.921,54.048c0.525,-0.946 1.156,-1.366 1.681,-1.051c0.525,0.315 0.631,1.261 0.105,2.207c-0.735,1.261 -2.102,1.471 -2.102,1.471c0,0 -0.315,-1.366 0.316,-2.627Z" style="fill:#adb9c9;fill-rule:nonzero;"/><g><path d="M56.026,48.583c-0.421,1.156 -0.21,2.102 0.42,2.417c0.631,0.316 1.366,-0.105 1.892,-1.261c0.63,-1.471 -0.316,-3.152 -0.316,-3.152c0,0 -1.471,0.525 -1.996,1.996Z" style="fill:#adb9c9;fill-rule:nonzero;"/><path d="M57.917,50.58c-0.945,-0.315 -1.471,0 -1.576,0.42c-0.105,0.421 0.42,0.946 1.261,1.261c1.156,0.421 1.997,-0.21 1.997,-0.21c0.105,0 -0.421,-1.051 -1.682,-1.471Z" style="fill:#adb9c9;fill-rule:nonzero;"/></g></g><g><path d="M49.09,48.373c2.417,1.577 4.519,2.102 5.57,1.051c1.05,-0.946 0.42,-3.678 -2.838,-5.78c-4.413,-2.627 -7.986,-0.42 -7.881,-0.42c0.105,0.105 1.997,3.153 5.149,5.149Z" style="fill:#adb9c9;fill-rule:nonzero;"/><path d="M47.724,44.59c6.62,3.048 11.559,9.668 12.82,16.814c0.211,0 0.736,-0.315 1.051,-0.315c-1.681,-7.461 -7.251,-13.767 -13.871,-16.499Z" style="fill:#8393a7;fill-rule:nonzero;"/></g></g><g><g><path d="M66.324,52.892c0.421,1.156 0.21,2.102 -0.42,2.417c-0.631,0.315 -1.366,-0.105 -1.892,-1.261c-0.63,-1.471 0.316,-3.153 0.316,-3.153c0,0 1.471,0.421 1.996,1.997Z" style="fill:#adb9c9;fill-rule:nonzero;"/><path d="M64.433,54.889c0.945,-0.316 1.471,0 1.576,0.42c0.105,0.42 -0.42,0.946 -1.261,1.261c-1.156,0.42 -1.997,-0.21 -1.997,-0.21c-0.105,0 0.421,-1.156 1.682,-1.471Z" style="fill:#adb9c9;fill-rule:nonzero;"/></g><g><path d="M73.26,52.682c-2.417,1.576 -4.519,2.102 -5.57,1.051c-1.051,-0.946 -0.42,-3.678 2.838,-5.78c4.413,-2.627 7.986,-0.42 7.881,-0.42c-0.105,0 -1.997,3.152 -5.149,5.149Z" style="fill:#adb9c9;fill-rule:nonzero;"/><path d="M74.626,48.794c-6.62,3.047 -11.559,9.668 -12.821,16.813c-0.21,0 -0.735,-0.315 -1.05,-0.315c1.681,-7.356 7.251,-13.661 13.871,-16.498Z" style="fill:#8393a7;fill-rule:nonzero;"/></g></g></g><g><g><rect x="94.56" y="98.356" width="68.652" height="10" style="fill:#53657d;"/><rect x="46.727" y="98.356" width="37.152" height="10" style="fill:#53657d;"/></g><rect x="46.727" y="78.901" width="116.485" height="10" style="fill:#53657d;"/><g><rect x="88.667" y="59.445" width="44.273" height="10" style="fill:#53657d;"/><rect x="144.362" y="59.445" width="18.851" height="10" style="fill:#53657d;"/></g><rect x="88.667" y="39.989" width="74.546" height="10" style="fill:#53657d;"/></g></g></g></svg>