<?xml version="1.0" encoding="UTF-8" standalone="no"?><!DOCTYPE svg PUBLIC "-//W3C//DTD SVG 1.1//EN" "http://www.w3.org/Graphics/SVG/1.1/DTD/svg11.dtd"><svg width="100%" height="100%" viewBox="0 0 210 235" version="1.1" xmlns="http://www.w3.org/2000/svg" xmlns:xlink="http://www.w3.org/1999/xlink" xml:space="preserve" style="fill-rule:evenodd;clip-rule:evenodd;stroke-linejoin:round;stroke-miterlimit:1.41421;"><rect id="re.-paint.-and.-re.-gild.-headstone.-icon" x="0" y="0" width="210" height="235" style="fill:none;"/><clipPath id="_clip1"><rect x="0" y="0" width="210" height="235"/></clipPath><g clip-path="url(#_clip1)"><g><path d="M210,235l-210,0l0,-60l25,0l0,-148.184c7.993,-3.732 15.974,-7.496 24.081,-10.975c4.305,-1.847 8.649,-3.6 13.029,-5.261c4.105,-1.558 8.243,-3.035 12.42,-4.391c2.679,-0.871 5.374,-1.692 8.089,-2.445c2.691,-0.746 5.401,-1.426 8.133,-2.006c2.102,-0.446 4.217,-0.833 6.346,-1.132c1.892,-0.265 3.795,-0.462 5.704,-0.553c0.612,-0.029 1.223,-0.044 1.835,-0.052c0.363,-0.001 0.363,-0.001 0.726,0c0.612,0.008 1.224,0.023 1.835,0.052c1.909,0.091 3.812,0.288 5.704,0.553c2.129,0.299 4.244,0.686 6.346,1.132c2.732,0.58 5.442,1.26 8.133,2.006c2.715,0.753 5.41,1.574 8.089,2.445c4.177,1.356 8.315,2.833 12.42,4.391c4.38,1.661 8.724,3.414 13.029,5.261c8.107,3.479 16.088,7.243 24.081,10.975l0,148.184l25,0l0,60Z" style="fill:#adb9c9;"/><path d="M200,185l0,40l-25,0l0,0l-140,0l0,0l-25,0l0,-40l190,0Z" style="fill:#c9d3df;"/><path d="M35,175l140,0l0,-141.816c-1.366,-0.637 -2.733,-1.272 -4.1,-1.906c-5.19,-2.398 -10.396,-4.762 -15.663,-6.988c-3.603,-1.522 -7.236,-2.973 -10.893,-4.36c-4.33,-1.643 -8.695,-3.193 -13.108,-4.599c-2.416,-0.77 -4.846,-1.496 -7.293,-2.161c-2.242,-0.609 -4.498,-1.167 -6.77,-1.649c-1.764,-0.375 -3.538,-0.703 -5.322,-0.963c-1.601,-0.233 -3.212,-0.412 -4.828,-0.501c-0.487,-0.026 -0.974,-0.043 -1.462,-0.053c-0.28,-0.003 -0.56,-0.004 -0.84,-0.003c-0.482,0.006 -0.964,0.018 -1.445,0.041c-1.717,0.082 -3.427,0.268 -5.127,0.516c-1.784,0.26 -3.558,0.588 -5.322,0.963c-2.272,0.482 -4.528,1.04 -6.77,1.649c-2.576,0.7 -5.133,1.468 -7.675,2.283c-4.282,1.374 -8.521,2.882 -12.726,4.477c-3.952,1.499 -7.874,3.073 -11.763,4.729c-6.15,2.62 -12.221,5.42 -18.282,8.24l-0.611,0.285l0,141.816Z" style="fill:#c9d3df;"/><rect x="50" y="137" width="110" height="10" style="fill:#adb9c9;fill-rule:nonzero;"/><rect x="55" y="117" width="100" height="10" style="fill:#adb9c9;fill-rule:nonzero;"/><rect x="115" y="97" width="50" height="10" style="fill:#adb9c9;fill-rule:nonzero;"/><rect x="45" y="97" width="60" height="10" style="fill:#374355;fill-rule:nonzero;"/><rect x="62.5" y="77" width="85" height="10" style="fill:#374355;fill-rule:nonzero;"/><rect x="50" y="57" width="110" height="10" style="fill:#374355;fill-rule:nonzero;"/><rect x="75" y="37" width="60" height="10" style="fill:#374355;fill-rule:nonzero;"/></g></g></svg>