<?xml version="1.0" encoding="UTF-8" standalone="no"?><!DOCTYPE svg PUBLIC "-//W3C//DTD SVG 1.1//EN" "http://www.w3.org/Graphics/SVG/1.1/DTD/svg11.dtd"><svg width="100%" height="100%" viewBox="0 0 210 235" version="1.1" xmlns="http://www.w3.org/2000/svg" xmlns:xlink="http://www.w3.org/1999/xlink" xml:space="preserve" style="fill-rule:evenodd;clip-rule:evenodd;stroke-linejoin:round;stroke-miterlimit:1.41421;"><rect id="vase.-memorial.-icon" x="0" y="0.001" width="210" height="235" style="fill:none;"/><clipPath id="_clip1"><rect x="0" y="0.001" width="210" height="235"/></clipPath><g clip-path="url(#_clip1)"><g><rect x="37.5" y="61.715" width="135" height="99.266" style="fill:#c9d3df;"/><path d="M172.5,160.98l-135,0l0,-99.265l135,0l0,99.265Zm-125,-89.265l0,79.265l115,0l0,-79.265l-115,0Z" style="fill:#adb9c9;"/><rect x="30" y="142.675" width="150" height="30.611" style="fill:#c9d3df;"/><path d="M180,173.286l-150,0l0,-30.611l150,0l0,30.611Zm-140,-20.611l0,10.611l130,0l0,-10.611l-130,0Z" style="fill:#adb9c9;"/><g><rect x="74.802" y="100.21" width="60.397" height="10" style="fill:#8393a7;"/><rect x="60.75" y="81.232" width="88.5" height="10" style="fill:#8393a7;"/></g></g><g><rect x="0" y="185" width="50" height="50" style="fill:#c9d3df;"/><path d="M50,235l-50,0l0,-50l50,0l0,50Zm-40,-40l0,30l30,0l0,-30l-30,0Z" style="fill:#adb9c9;"/><rect x="15" y="199.06" width="20" height="10" style="fill:#8393a7;"/></g><g><rect x="160" y="0.001" width="50" height="50" style="fill:#c9d3df;"/><path d="M210,50.001l-50,0l0,-50l50,0l0,50Zm-40,-40l0,30l30,0l0,-30l-30,0Z" style="fill:#adb9c9;"/><rect x="175" y="14.061" width="20" height="10" style="fill:#8393a7;"/></g></g></svg>