<?xml version="1.0" encoding="UTF-8" standalone="no"?><!DOCTYPE svg PUBLIC "-//W3C//DTD SVG 1.1//EN" "http://www.w3.org/Graphics/SVG/1.1/DTD/svg11.dtd"><svg width="100%" height="100%" viewBox="0 0 210 235" version="1.1" xmlns="http://www.w3.org/2000/svg" xmlns:xlink="http://www.w3.org/1999/xlink" xml:space="preserve" style="fill-rule:evenodd;clip-rule:evenodd;stroke-linejoin:round;stroke-miterlimit:1.41421;"><rect id="childrens.-memorial.-icon" x="0" y="0.001" width="210" height="235" style="fill:none;"/><g><rect x="21" y="165.329" width="59.5" height="10.505" style="fill:#adb9c9;"/><g><path d="M58.379,95.392c2.226,-2.876 5.712,-4.73 9.627,-4.73c6.716,0 12.168,5.452 12.168,12.167c0,5.149 -3.204,9.554 -7.726,11.33c0.08,0.775 0.121,1.562 0.121,2.359c0,5.552 -1.987,10.643 -5.289,14.6c3.25,-0.828 6.314,-1.888 9.1,-3.162c4.587,-2.094 9.999,-0.079 12.093,4.506c2.095,4.584 0.078,9.998 -4.506,12.093c-3.119,1.426 -6.425,2.641 -9.878,3.637c0.001,0.088 0.001,0.177 0.001,0.265c0,1.919 -0.222,3.787 -0.643,5.578l0.524,0.336c4.578,-4.065 10.638,-5.041 14.604,-1.957c4.643,3.609 4.644,11.373 0.004,17.341c-2.769,3.563 -6.947,6.079 -11.447,6.079c-1.561,0 -3.285,-0.504 -4.543,-1.256l-9.552,-5.732c-3.82,2.495 -8.383,3.946 -13.282,3.946c-4.898,0 -9.461,-1.451 -13.281,-3.946l-9.552,5.732c-1.258,0.752 -2.982,1.256 -4.543,1.256c-4.5,0 -8.678,-2.516 -11.447,-6.079c-4.64,-5.968 -4.639,-13.732 0.003,-17.341c3.967,-3.084 10.027,-2.108 14.604,1.957l0.525,-0.336c-0.421,-1.791 -0.643,-3.659 -0.643,-5.578c0,-0.088 0,-0.177 0.001,-0.265c-3.453,-0.996 -6.759,-2.211 -9.878,-3.637c-4.584,-2.095 -6.601,-7.509 -4.507,-12.093c2.095,-4.585 7.507,-6.6 12.093,-4.506c2.787,1.274 5.85,2.334 9.101,3.162c-3.302,-3.957 -5.289,-9.048 -5.289,-14.6c0,-0.797 0.04,-1.584 0.12,-2.359c-4.521,-1.776 -7.725,-6.181 -7.725,-11.33c0,-6.715 5.452,-12.167 12.167,-12.167c3.916,0 7.402,1.854 9.628,4.73c2.661,-1.088 5.573,-1.688 8.623,-1.688c3.051,0 5.963,0.6 8.624,1.688Z" style="fill:#c9d3df;"/><path d="M49.755,139.965c2.562,-4.592 7.685,-4.592 10.247,-2.296c2.561,2.296 2.561,6.888 0,11.481c-1.794,3.444 -6.404,6.888 -10.247,9.184c-3.842,-2.296 -8.453,-5.74 -10.246,-9.184c-2.561,-4.593 -2.561,-9.185 0,-11.481c2.562,-2.296 7.685,-2.296 10.246,2.296Z" style="fill:#374355;"/><circle cx="80.174" cy="136.29" r="6.084" style="fill:#8393a7;"/><circle cx="31.504" cy="102.829" r="6.084" style="fill:#8393a7;"/><circle cx="68.006" cy="102.829" r="6.084" style="fill:#8393a7;"/><circle cx="40.63" cy="111.955" r="3.042" style="fill:#374355;"/><circle cx="58.881" cy="111.955" r="3.042" style="fill:#374355;"/><circle cx="49.755" cy="121.08" r="3.042" style="fill:#374355;"/><circle cx="19.337" cy="136.29" r="6.084" style="fill:#8393a7;"/><path d="M24.417,159.71c-4.198,-5.4 -10.738,-7.434 -15.387,-5.108c-2.556,4.026 -1.955,10.193 1.902,15.153c4.199,5.401 10.738,7.434 15.387,5.107c2.555,-4.024 1.954,-10.192 -1.902,-15.152Z" style="fill:#8393a7;fill-rule:nonzero;"/><path d="M75.093,159.71c4.199,-5.4 10.738,-7.434 15.388,-5.108c2.555,4.026 1.955,10.193 -1.902,15.153c-4.199,5.401 -10.738,7.434 -15.387,5.107c-2.555,-4.024 -1.954,-10.192 1.901,-15.152Z" style="fill:#8393a7;fill-rule:nonzero;"/></g><path d="M25.667,92.154l0,-63.882c51.831,-36.459 104.713,-36.709 158.666,0l0,205.895l-158.666,0l0,-58.333c0,0 51.024,0 51.465,0c4.5,0 8.678,-2.516 11.447,-6.079c4.64,-5.968 4.639,-13.732 -0.004,-17.341c-3.966,-3.084 -10.026,-2.108 -14.604,1.957l-0.524,-0.336c0.421,-1.791 0.643,-3.659 0.643,-5.578c0,-0.088 0,-0.177 -0.001,-0.265c3.453,-0.996 6.759,-2.211 9.878,-3.637c4.584,-2.095 6.601,-7.509 4.506,-12.093c-2.094,-4.585 -7.506,-6.6 -12.093,-4.506c-2.786,1.274 -5.85,2.334 -9.1,3.162c3.302,-3.957 5.289,-9.048 5.289,-14.6c0,-0.797 -0.041,-1.584 -0.121,-2.359c4.522,-1.776 7.726,-6.181 7.726,-11.33c0,-6.715 -5.452,-12.167 -12.168,-12.167c-3.915,0 -7.401,1.854 -9.627,4.73c-2.661,-1.088 -5.573,-1.688 -8.624,-1.688c-3.05,0 -5.962,0.6 -8.623,1.688c-2.226,-2.876 -5.712,-4.73 -9.628,-4.73c-2.114,0 -4.104,0.541 -5.837,1.492Z" style="fill:#c9d3df;"/><path d="M104.514,0.834l0.31,0.001l0.31,0.001l0.31,0.003l0.31,0.003l0.31,0.005l0.31,0.005l0.31,0.006l0.31,0.006l0.31,0.008l0.311,0.008l0.31,0.01l0.31,0.01l0.31,0.011l0.31,0.011l0.311,0.013l0.31,0.014l0.31,0.014l0.311,0.015l0.31,0.016l0.31,0.017l0.311,0.017l0.31,0.019l0.311,0.019l0.31,0.02l0.311,0.021l0.31,0.022l0.311,0.023l0.31,0.023l0.311,0.025l0.31,0.025l0.311,0.026l0.311,0.027l0.311,0.028l0.31,0.028l0.311,0.029l0.311,0.031l0.311,0.031l0.31,0.032l0.311,0.032l0.311,0.034l0.311,0.034l0.311,0.036l0.311,0.036l0.311,0.037l0.311,0.037l0.311,0.039l0.311,0.039l0.311,0.041l0.311,0.041l0.311,0.042l0.311,0.043l0.311,0.043l0.312,0.045l0.311,0.045l0.311,0.046l0.311,0.047l0.312,0.048l0.311,0.049l0.311,0.049l0.312,0.051l0.311,0.051l0.311,0.052l0.312,0.053l0.311,0.053l0.312,0.055l0.311,0.055l0.312,0.057l0.311,0.057l0.312,0.058l0.311,0.058l0.312,0.06l0.312,0.06l0.311,0.062l0.312,0.062l0.312,0.063l0.312,0.063l0.311,0.065l0.312,0.066l0.312,0.066l0.312,0.067l0.312,0.068l0.312,0.069l0.311,0.069l0.312,0.071l0.312,0.071l0.312,0.073l0.312,0.073l0.312,0.073l0.312,0.075l0.313,0.076l0.312,0.076l0.312,0.077l0.312,0.078l0.312,0.079l0.312,0.08l0.313,0.081l0.312,0.081l0.312,0.082l0.312,0.083l0.313,0.084l0.312,0.085l0.313,0.086l0.312,0.086l0.312,0.088l0.313,0.088l0.312,0.089l0.313,0.09l0.312,0.09l0.313,0.092l0.312,0.092l0.313,0.093l0.313,0.095l0.312,0.094l0.313,0.096l0.313,0.097l0.312,0.097l0.313,0.098l0.313,0.099l0.313,0.1l0.313,0.101l0.312,0.102l0.313,0.102l0.313,0.104l0.313,0.104l0.313,0.105l0.313,0.106l0.313,0.106l0.313,0.108l0.313,0.108l0.313,0.109l0.313,0.11l0.313,0.111l0.313,0.112l0.314,0.112l0.313,0.114l0.313,0.114l0.313,0.115l0.313,0.116l0.314,0.117l0.313,0.117l0.313,0.119l0.314,0.119l0.313,0.12l0.313,0.121l0.314,0.122l0.313,0.123l0.314,0.123l0.313,0.125l0.314,0.125l0.313,0.126l0.314,0.127l0.314,0.128l0.313,0.128l0.314,0.13l0.314,0.13l0.313,0.131l0.314,0.132l0.314,0.133l0.313,0.133l0.314,0.135l0.314,0.135l0.314,0.136l0.314,0.137l0.314,0.138l0.314,0.139l0.314,0.139l0.314,0.14l0.313,0.142l0.315,0.142l0.314,0.143l0.314,0.143l0.314,0.145l0.314,0.145l0.314,0.147l0.314,0.147l0.314,0.148l0.315,0.148l0.314,0.15l0.314,0.151l0.629,0.303l0.628,0.307l0.629,0.31l0.629,0.314l0.629,0.317l0.629,0.32l0.629,0.324l0.629,0.327l0.63,0.33l0.629,0.334l0.63,0.338l0.63,0.34l0.629,0.344l0.63,0.348l0.63,0.35l0.63,0.354l0.63,0.358l0.631,0.361l0.63,0.364l0.63,0.368l0.631,0.371l0.631,0.374l0.63,0.378l0.631,0.381l0.631,0.385l0.631,0.387l0.631,0.392l0.632,0.394l0.631,0.398l0.631,0.402l0.632,0.405l0.632,0.408l0.631,0.412l0.632,0.415l0.632,0.418l0.632,0.422l0.632,0.425l0.632,0.428l0,205.895l-158.666,0l0,-58.333l51.465,0l0.105,-0.001l0.106,-0.001l0.105,-0.002l0.105,-0.004l0.105,-0.004l0.105,-0.005l0.104,-0.006l0.105,-0.006l0.104,-0.008l0.104,-0.009l0.104,-0.009l0.104,-0.01l0.104,-0.012l0.103,-0.012l0.104,-0.013l0.103,-0.013l0.103,-0.015l0.103,-0.015l0.103,-0.017l0.102,-0.017l0.103,-0.018l0.102,-0.019l0.102,-0.019l0.102,-0.021l0.102,-0.021l0.101,-0.022l0.101,-0.023l0.101,-0.024l0.101,-0.025l0.101,-0.025l0.1,-0.026l0.1,-0.027l0.1,-0.028l0.1,-0.028l0.1,-0.03l0.099,-0.03l0.099,-0.03l0.099,-0.032l0.099,-0.032l0.098,-0.033l0.098,-0.034l0.098,-0.035l0.098,-0.035l0.097,-0.036l0.097,-0.037l0.097,-0.038l0.097,-0.038l0.096,-0.039l0.096,-0.04l0.096,-0.04l0.096,-0.042l0.095,-0.041l0.095,-0.043l0.095,-0.043l0.188,-0.089l0.187,-0.091l0.187,-0.094l0.185,-0.097l0.183,-0.099l0.183,-0.102l0.181,-0.105l0.18,-0.107l0.178,-0.11l0.178,-0.112l0.175,-0.115l0.175,-0.116l0.173,-0.12l0.171,-0.122l0.17,-0.123l0.168,-0.127l0.167,-0.128l0.166,-0.131l0.163,-0.133l0.162,-0.135l0.161,-0.137l0.159,-0.139l0.157,-0.141l0.155,-0.144l0.154,-0.145l0.152,-0.147l0.15,-0.149l0.148,-0.151l0.147,-0.153l0.144,-0.154l0.143,-0.157l0.141,-0.158l0.139,-0.159l0.136,-0.162l0.135,-0.163l0.133,-0.165l0.131,-0.166l0.108,-0.14l0.106,-0.141l0.105,-0.141l0.102,-0.142l0.102,-0.143l0.099,-0.143l0.098,-0.144l0.096,-0.144l0.094,-0.145l0.093,-0.146l0.09,-0.146l0.09,-0.146l0.087,-0.147l0.086,-0.147l0.084,-0.148l0.082,-0.148l0.081,-0.148l0.079,-0.149l0.077,-0.149l0.076,-0.149l0.074,-0.15l0.072,-0.15l0.071,-0.151l0.069,-0.15l0.067,-0.151l0.065,-0.151l0.064,-0.152l0.062,-0.151l0.06,-0.152l0.059,-0.152l0.057,-0.152l0.055,-0.152l0.053,-0.152l0.052,-0.152l0.05,-0.153l0.049,-0.152l0.046,-0.153l0.045,-0.153l0.044,-0.152l0.041,-0.153l0.04,-0.152l0.038,-0.153l0.037,-0.152l0.035,-0.153l0.033,-0.152l0.031,-0.152l0.03,-0.152l0.028,-0.152l0.026,-0.152l0.025,-0.151l0.023,-0.152l0.021,-0.151l0.02,-0.151l0.017,-0.151l0.016,-0.15l0.015,-0.15l0.013,-0.15l0.011,-0.15l0.009,-0.149l0.008,-0.149l0.005,-0.148l0.005,-0.148l0.002,-0.148l0.001,-0.147l-0.001,-0.147l-0.002,-0.147l-0.005,-0.146l-0.006,-0.145l-0.007,-0.145l-0.01,-0.145l-0.011,-0.143l-0.013,-0.144l-0.014,-0.143l-0.016,-0.142l-0.018,-0.141l-0.02,-0.141l-0.021,-0.141l-0.023,-0.14l-0.025,-0.139l-0.026,-0.138l-0.028,-0.138l-0.03,-0.137l-0.031,-0.136l-0.033,-0.135l-0.035,-0.135l-0.037,-0.134l-0.038,-0.133l-0.04,-0.132l-0.042,-0.131l-0.043,-0.131l-0.045,-0.13l-0.047,-0.128l-0.049,-0.128l-0.05,-0.127l-0.052,-0.126l-0.053,-0.125l-0.055,-0.124l-0.057,-0.123l-0.059,-0.123l-0.06,-0.121l-0.062,-0.12l-0.064,-0.118l-0.066,-0.118l-0.067,-0.117l-0.069,-0.116l-0.07,-0.114l-0.073,-0.114l-0.073,-0.112l-0.076,-0.111l-0.078,-0.11l-0.079,-0.108l-0.08,-0.108l-0.083,-0.106l-0.084,-0.105l-0.086,-0.103l-0.087,-0.102l-0.09,-0.101l-0.091,-0.1l-0.092,-0.098l-0.095,-0.097l-0.096,-0.096l-0.097,-0.094l-0.1,-0.093l-0.101,-0.091l-0.103,-0.09l-0.104,-0.088l-0.107,-0.087l-0.108,-0.085l-0.093,-0.072l-0.094,-0.07l-0.095,-0.068l-0.095,-0.067l-0.097,-0.066l-0.097,-0.064l-0.098,-0.063l-0.098,-0.061l-0.099,-0.06l-0.1,-0.058l-0.1,-0.057l-0.101,-0.055l-0.102,-0.054l-0.103,-0.053l-0.103,-0.051l-0.103,-0.049l-0.104,-0.048l-0.105,-0.047l-0.106,-0.045l-0.106,-0.044l-0.106,-0.042l-0.107,-0.041l-0.108,-0.04l-0.108,-0.038l-0.109,-0.037l-0.109,-0.035l-0.11,-0.034l-0.11,-0.032l-0.11,-0.031l-0.112,-0.03l-0.111,-0.028l-0.112,-0.027l-0.113,-0.025l-0.113,-0.024l-0.113,-0.023l-0.114,-0.021l-0.114,-0.02l-0.114,-0.019l-0.115,-0.017l-0.115,-0.015l-0.116,-0.015l-0.116,-0.013l-0.116,-0.011l-0.117,-0.011l-0.117,-0.008l-0.117,-0.008l-0.118,-0.006l-0.118,-0.005l-0.118,-0.003l-0.118,-0.002l-0.119,-0.001l-0.119,0l-0.119,0.002l-0.119,0.004l-0.12,0.004l-0.119,0.006l-0.12,0.008l-0.12,0.008l-0.121,0.01l-0.12,0.011l-0.121,0.013l-0.121,0.014l-0.12,0.015l-0.121,0.017l-0.122,0.018l-0.121,0.019l-0.121,0.02l-0.122,0.022l-0.121,0.023l-0.122,0.024l-0.121,0.026l-0.122,0.027l-0.121,0.028l-0.122,0.03l-0.122,0.03l-0.122,0.032l-0.121,0.034l-0.122,0.034l-0.121,0.036l-0.122,0.037l-0.122,0.039l-0.121,0.04l-0.121,0.04l-0.122,0.043l-0.121,0.043l-0.121,0.045l-0.121,0.046l-0.121,0.047l-0.121,0.048l-0.12,0.05l-0.121,0.051l-0.12,0.052l-0.12,0.053l-0.12,0.055l-0.12,0.056l-0.119,0.057l-0.12,0.058l-0.119,0.06l-0.119,0.06l-0.118,0.062l-0.119,0.063l-0.118,0.065l-0.117,0.065l-0.118,0.067l-0.117,0.068l-0.117,0.069l-0.117,0.07l-0.116,0.072l-0.116,0.072l-0.115,0.074l-0.116,0.075l-0.115,0.077l-0.114,0.077l-0.114,0.079l-0.114,0.079l-0.113,0.081l-0.113,0.082l-0.112,0.084l-0.112,0.084l-0.112,0.086l-0.111,0.086l-0.111,0.088l-0.11,0.089l-0.109,0.09l-0.109,0.092l-0.109,0.092l-0.108,0.094l-0.108,0.094l-0.524,-0.336l0.038,-0.168l0.038,-0.169l0.037,-0.169l0.035,-0.169l0.034,-0.17l0.033,-0.171l0.032,-0.17l0.031,-0.171l0.029,-0.172l0.028,-0.172l0.027,-0.172l0.026,-0.173l0.025,-0.173l0.023,-0.174l0.022,-0.174l0.021,-0.174l0.02,-0.175l0.018,-0.175l0.018,-0.175l0.016,-0.176l0.014,-0.176l0.014,-0.177l0.012,-0.177l0.011,-0.177l0.009,-0.177l0.009,-0.178l0.007,-0.178l0.006,-0.179l0.004,-0.179l0.004,-0.179l0.001,-0.179l0.001,-0.18l0,-0.133l-0.001,-0.132l0.323,-0.094l0.322,-0.096l0.322,-0.096l0.321,-0.098l0.319,-0.099l0.319,-0.1l0.318,-0.102l0.317,-0.103l0.316,-0.104l0.316,-0.106l0.314,-0.107l0.313,-0.108l0.313,-0.109l0.311,-0.11l0.31,-0.112l0.31,-0.113l0.308,-0.115l0.308,-0.115l0.307,-0.117l0.305,-0.118l0.305,-0.119l0.303,-0.121l0.303,-0.122l0.301,-0.123l0.301,-0.124l0.299,-0.126l0.298,-0.127l0.298,-0.128l0.296,-0.129l0.295,-0.131l0.294,-0.132l0.293,-0.133l0.107,-0.049l0.106,-0.051l0.105,-0.053l0.104,-0.053l0.103,-0.054l0.103,-0.056l0.101,-0.057l0.1,-0.058l0.099,-0.059l0.099,-0.06l0.097,-0.061l0.096,-0.062l0.096,-0.064l0.094,-0.064l0.093,-0.066l0.093,-0.066l0.091,-0.068l0.09,-0.068l0.089,-0.07l0.089,-0.07l0.087,-0.072l0.086,-0.072l0.085,-0.074l0.084,-0.074l0.084,-0.076l0.082,-0.076l0.081,-0.077l0.079,-0.078l0.079,-0.079l0.078,-0.08l0.077,-0.08l0.075,-0.082l0.075,-0.082l0.073,-0.083l0.073,-0.084l0.071,-0.085l0.07,-0.086l0.069,-0.086l0.068,-0.087l0.067,-0.088l0.066,-0.089l0.065,-0.089l0.063,-0.09l0.062,-0.091l0.062,-0.091l0.06,-0.092l0.059,-0.093l0.057,-0.093l0.057,-0.095l0.056,-0.094l0.054,-0.096l0.053,-0.096l0.052,-0.096l0.051,-0.097l0.05,-0.098l0.048,-0.098l0.047,-0.099l0.046,-0.1l0.045,-0.099l0.044,-0.101l0.042,-0.101l0.042,-0.101l0.04,-0.102l0.039,-0.102l0.037,-0.103l0.037,-0.103l0.035,-0.104l0.034,-0.104l0.032,-0.105l0.032,-0.105l0.03,-0.105l0.029,-0.106l0.027,-0.106l0.027,-0.106l0.025,-0.107l0.024,-0.107l0.022,-0.107l0.022,-0.108l0.02,-0.108l0.019,-0.108l0.017,-0.108l0.016,-0.109l0.015,-0.109l0.014,-0.109l0.012,-0.11l0.011,-0.109l0.009,-0.11l0.009,-0.11l0.006,-0.11l0.006,-0.111l0.004,-0.11l0.003,-0.111l0.002,-0.11l0,-0.111l-0.001,-0.111l-0.003,-0.111l-0.003,-0.111l-0.006,-0.112l-0.006,-0.111l-0.008,-0.111l-0.01,-0.111l-0.01,-0.112l-0.012,-0.111l-0.014,-0.111l-0.015,-0.112l-0.016,-0.111l-0.018,-0.111l-0.019,-0.111l-0.021,-0.111l-0.022,-0.111l-0.023,-0.111l-0.025,-0.111l-0.026,-0.111l-0.028,-0.111l-0.029,-0.11l-0.031,-0.11l-0.032,-0.11l-0.033,-0.11l-0.035,-0.11l-0.037,-0.11l-0.038,-0.109l-0.039,-0.109l-0.041,-0.109l-0.042,-0.109l-0.044,-0.108l-0.045,-0.108l-0.047,-0.108l-0.049,-0.108l-0.049,-0.107l-0.051,-0.106l-0.052,-0.105l-0.053,-0.104l-0.055,-0.103l-0.055,-0.103l-0.057,-0.101l-0.058,-0.1l-0.059,-0.099l-0.06,-0.099l-0.061,-0.097l-0.063,-0.096l-0.063,-0.096l-0.064,-0.094l-0.066,-0.093l-0.066,-0.093l-0.068,-0.091l-0.068,-0.09l-0.07,-0.09l-0.07,-0.088l-0.072,-0.087l-0.072,-0.086l-0.074,-0.086l-0.074,-0.084l-0.075,-0.083l-0.077,-0.082l-0.077,-0.081l-0.078,-0.08l-0.079,-0.079l-0.079,-0.077l-0.081,-0.077l-0.082,-0.076l-0.082,-0.074l-0.083,-0.074l-0.084,-0.072l-0.085,-0.071l-0.085,-0.071l-0.087,-0.069l-0.087,-0.068l-0.088,-0.067l-0.088,-0.065l-0.089,-0.065l-0.09,-0.063l-0.091,-0.063l-0.092,-0.061l-0.092,-0.06l-0.092,-0.059l-0.094,-0.058l-0.094,-0.056l-0.095,-0.056l-0.095,-0.054l-0.096,-0.053l-0.096,-0.052l-0.098,-0.051l-0.097,-0.05l-0.099,-0.048l-0.098,-0.048l-0.1,-0.046l-0.1,-0.044l-0.1,-0.044l-0.101,-0.043l-0.101,-0.041l-0.102,-0.04l-0.102,-0.039l-0.103,-0.037l-0.103,-0.037l-0.104,-0.035l-0.104,-0.034l-0.105,-0.032l-0.105,-0.032l-0.105,-0.03l-0.106,-0.029l-0.106,-0.028l-0.106,-0.026l-0.107,-0.025l-0.107,-0.024l-0.107,-0.023l-0.108,-0.021l-0.108,-0.02l-0.108,-0.019l-0.108,-0.017l-0.109,-0.016l-0.109,-0.015l-0.109,-0.014l-0.11,-0.012l-0.109,-0.011l-0.11,-0.009l-0.11,-0.009l-0.11,-0.006l-0.111,-0.006l-0.11,-0.004l-0.111,-0.003l-0.111,-0.002l-0.111,0l-0.111,0.001l-0.111,0.003l-0.111,0.004l-0.111,0.005l-0.111,0.006l-0.112,0.008l-0.111,0.01l-0.111,0.01l-0.112,0.013l-0.111,0.013l-0.111,0.015l-0.112,0.016l-0.111,0.018l-0.111,0.019l-0.111,0.021l-0.111,0.022l-0.111,0.023l-0.111,0.025l-0.111,0.026l-0.11,0.028l-0.111,0.029l-0.11,0.031l-0.111,0.032l-0.11,0.033l-0.109,0.035l-0.11,0.037l-0.109,0.038l-0.11,0.039l-0.109,0.041l-0.108,0.042l-0.109,0.044l-0.108,0.046l-0.108,0.046l-0.108,0.049l-0.262,0.119l-0.263,0.117l-0.266,0.116l-0.266,0.115l-0.269,0.114l-0.27,0.113l-0.271,0.111l-0.273,0.11l-0.274,0.109l-0.276,0.107l-0.278,0.106l-0.278,0.105l-0.281,0.103l-0.281,0.103l-0.283,0.1l-0.285,0.1l-0.286,0.098l-0.287,0.097l-0.288,0.096l-0.29,0.095l-0.291,0.093l-0.292,0.091l-0.294,0.091l-0.295,0.089l-0.296,0.088l-0.297,0.086l-0.298,0.085l-0.3,0.084l-0.301,0.082l-0.302,0.081l-0.303,0.08l-0.304,0.078l0.154,-0.186l0.152,-0.188l0.15,-0.19l0.148,-0.191l0.146,-0.193l0.143,-0.194l0.142,-0.196l0.14,-0.198l0.138,-0.199l0.136,-0.2l0.134,-0.202l0.131,-0.204l0.13,-0.205l0.127,-0.206l0.125,-0.208l0.123,-0.21l0.121,-0.211l0.119,-0.212l0.117,-0.213l0.114,-0.215l0.112,-0.217l0.11,-0.217l0.107,-0.219l0.106,-0.221l0.103,-0.221l0.1,-0.223l0.099,-0.224l0.096,-0.226l0.093,-0.226l0.091,-0.228l0.089,-0.229l0.087,-0.23l0.084,-0.231l0.081,-0.233l0.08,-0.234l0.076,-0.234l0.075,-0.236l0.071,-0.237l0.07,-0.238l0.066,-0.239l0.064,-0.24l0.062,-0.242l0.059,-0.242l0.057,-0.243l0.053,-0.244l0.052,-0.245l0.048,-0.246l0.046,-0.247l0.043,-0.248l0.041,-0.249l0.038,-0.25l0.035,-0.25l0.033,-0.252l0.029,-0.252l0.027,-0.253l0.024,-0.254l0.022,-0.255l0.018,-0.256l0.016,-0.256l0.013,-0.257l0.01,-0.258l0.007,-0.258l0.005,-0.259l0.001,-0.26l0,-0.15l-0.002,-0.149l-0.002,-0.148l-0.003,-0.149l-0.005,-0.148l-0.005,-0.148l-0.006,-0.148l-0.007,-0.147l-0.008,-0.148l-0.009,-0.147l-0.01,-0.147l-0.011,-0.146l-0.012,-0.147l-0.012,-0.146l-0.014,-0.145l-0.015,-0.146l0.106,-0.042l0.105,-0.043l0.105,-0.044l0.104,-0.045l0.104,-0.046l0.103,-0.047l0.103,-0.048l0.102,-0.048l0.102,-0.05l0.101,-0.05l0.101,-0.052l0.1,-0.052l0.099,-0.053l0.099,-0.055l0.099,-0.055l0.097,-0.055l0.098,-0.057l0.096,-0.058l0.097,-0.058l0.095,-0.06l0.095,-0.06l0.094,-0.061l0.094,-0.062l0.093,-0.063l0.093,-0.063l0.092,-0.065l0.091,-0.065l0.091,-0.066l0.09,-0.067l0.089,-0.068l0.089,-0.068l0.088,-0.069l0.087,-0.071l0.087,-0.07l0.086,-0.072l0.086,-0.072l0.084,-0.074l0.085,-0.074l0.083,-0.074l0.083,-0.076l0.082,-0.076l0.081,-0.077l0.081,-0.077l0.079,-0.079l0.08,-0.079l0.078,-0.08l0.078,-0.08l0.077,-0.082l0.076,-0.082l0.075,-0.082l0.075,-0.084l0.074,-0.084l0.073,-0.085l0.073,-0.085l0.071,-0.086l0.071,-0.087l0.07,-0.087l0.07,-0.088l0.068,-0.089l0.068,-0.089l0.067,-0.09l0.066,-0.091l0.065,-0.091l0.065,-0.092l0.063,-0.093l0.063,-0.093l0.062,-0.094l0.061,-0.094l0.06,-0.095l0.06,-0.095l0.058,-0.096l0.058,-0.097l0.057,-0.097l0.056,-0.098l0.055,-0.099l0.054,-0.098l0.053,-0.1l0.053,-0.1l0.051,-0.101l0.051,-0.101l0.049,-0.101l0.049,-0.103l0.048,-0.102l0.047,-0.103l0.046,-0.104l0.045,-0.104l0.044,-0.105l0.043,-0.105l0.042,-0.106l0.041,-0.106l0.04,-0.107l0.039,-0.107l0.039,-0.108l0.037,-0.108l0.036,-0.108l0.036,-0.109l0.034,-0.11l0.033,-0.109l0.032,-0.111l0.032,-0.11l0.03,-0.112l0.029,-0.111l0.028,-0.112l0.027,-0.113l0.026,-0.112l0.025,-0.113l0.024,-0.114l0.023,-0.114l0.022,-0.114l0.021,-0.115l0.02,-0.115l0.018,-0.116l0.018,-0.115l0.016,-0.116l0.016,-0.117l0.014,-0.117l0.013,-0.117l0.012,-0.118l0.011,-0.117l0.01,-0.118l0.008,-0.119l0.008,-0.119l0.006,-0.119l0.005,-0.119l0.005,-0.12l0.002,-0.12l0.002,-0.12l0.001,-0.121l-0.001,-0.157l-0.003,-0.156l-0.005,-0.157l-0.007,-0.155l-0.009,-0.156l-0.011,-0.154l-0.012,-0.154l-0.015,-0.154l-0.017,-0.153l-0.018,-0.152l-0.02,-0.152l-0.022,-0.152l-0.025,-0.15l-0.025,-0.15l-0.028,-0.15l-0.03,-0.148l-0.031,-0.149l-0.033,-0.147l-0.035,-0.147l-0.037,-0.146l-0.038,-0.145l-0.04,-0.145l-0.042,-0.144l-0.044,-0.143l-0.045,-0.143l-0.047,-0.141l-0.049,-0.141l-0.05,-0.14l-0.052,-0.14l-0.054,-0.138l-0.055,-0.138l-0.057,-0.137l-0.059,-0.136l-0.06,-0.135l-0.061,-0.134l-0.064,-0.134l-0.065,-0.132l-0.066,-0.132l-0.068,-0.131l-0.07,-0.129l-0.071,-0.129l-0.072,-0.128l-0.074,-0.127l-0.076,-0.126l-0.077,-0.125l-0.078,-0.124l-0.08,-0.123l-0.081,-0.122l-0.083,-0.12l-0.084,-0.12l-0.086,-0.119l-0.087,-0.118l-0.088,-0.116l-0.09,-0.116l-0.091,-0.114l-0.092,-0.113l-0.094,-0.112l-0.095,-0.111l-0.096,-0.11l-0.098,-0.109l-0.098,-0.107l-0.101,-0.107l-0.101,-0.105l-0.103,-0.104l-0.103,-0.102l-0.106,-0.102l-0.106,-0.1l-0.107,-0.099l-0.109,-0.097l-0.11,-0.096l-0.111,-0.095l-0.112,-0.094l-0.113,-0.092l-0.114,-0.091l-0.116,-0.09l-0.117,-0.088l-0.117,-0.087l-0.119,-0.086l-0.12,-0.084l-0.121,-0.083l-0.122,-0.081l-0.122,-0.08l-0.124,-0.078l-0.125,-0.077l-0.126,-0.076l-0.127,-0.074l-0.128,-0.073l-0.129,-0.071l-0.13,-0.069l-0.13,-0.068l-0.132,-0.066l-0.132,-0.065l-0.134,-0.064l-0.134,-0.061l-0.135,-0.061l-0.136,-0.058l-0.137,-0.057l-0.138,-0.055l-0.138,-0.054l-0.14,-0.052l-0.14,-0.051l-0.141,-0.048l-0.142,-0.047l-0.142,-0.046l-0.143,-0.043l-0.144,-0.042l-0.145,-0.04l-0.145,-0.039l-0.146,-0.036l-0.147,-0.035l-0.148,-0.033l-0.148,-0.032l-0.148,-0.029l-0.15,-0.028l-0.15,-0.026l-0.151,-0.024l-0.151,-0.022l-0.152,-0.02l-0.152,-0.019l-0.153,-0.016l-0.154,-0.015l-0.154,-0.012l-0.155,-0.011l-0.155,-0.009l-0.156,-0.007l-0.156,-0.005l-0.156,-0.003l-0.158,-0.001l-0.183,0.001l-0.182,0.004l-0.182,0.007l-0.181,0.01l-0.181,0.012l-0.18,0.014l-0.179,0.017l-0.178,0.02l-0.178,0.023l-0.176,0.025l-0.176,0.027l-0.175,0.03l-0.174,0.032l-0.174,0.035l-0.172,0.038l-0.172,0.04l-0.17,0.042l-0.17,0.044l-0.169,0.047l-0.167,0.05l-0.167,0.051l-0.165,0.054l-0.165,0.057l-0.164,0.058l-0.162,0.061l-0.161,0.063l-0.161,0.065l-0.159,0.068l-0.157,0.07l-0.157,0.071l-0.156,0.074l-0.154,0.076l-0.153,0.079l-0.152,0.08l-0.15,0.082l-0.15,0.085l-0.148,0.086l-0.146,0.089l-0.145,0.09l-0.144,0.092l-0.143,0.095l-0.141,0.096l-0.139,0.098l-0.139,0.101l-0.136,0.102l-0.136,0.103l-0.133,0.106l-0.132,0.108l-0.131,0.109l-0.129,0.111l-0.128,0.113l-0.126,0.115l-0.124,0.116l-0.123,0.118l-0.121,0.12l-0.119,0.121l-0.118,0.123l-0.116,0.125l-0.114,0.126l-0.112,0.128l-0.111,0.13l-0.109,0.131l-0.107,0.132l-0.105,0.134l-0.125,-0.05l-0.126,-0.05l-0.125,-0.049l-0.126,-0.049l-0.127,-0.048l-0.126,-0.047l-0.127,-0.046l-0.128,-0.046l-0.127,-0.044l-0.129,-0.045l-0.128,-0.043l-0.129,-0.043l-0.129,-0.041l-0.129,-0.042l-0.13,-0.04l-0.13,-0.04l-0.131,-0.038l-0.131,-0.039l-0.131,-0.037l-0.131,-0.037l-0.132,-0.035l-0.132,-0.035l-0.132,-0.035l-0.133,-0.033l-0.133,-0.033l-0.133,-0.032l-0.134,-0.031l-0.133,-0.03l-0.135,-0.03l-0.134,-0.029l-0.135,-0.028l-0.135,-0.027l-0.135,-0.026l-0.136,-0.026l-0.136,-0.025l-0.136,-0.024l-0.136,-0.023l-0.137,-0.023l-0.137,-0.021l-0.137,-0.021l-0.138,-0.02l-0.137,-0.019l-0.138,-0.018l-0.139,-0.018l-0.138,-0.016l-0.139,-0.016l-0.139,-0.015l-0.139,-0.014l-0.14,-0.014l-0.14,-0.012l-0.14,-0.012l-0.14,-0.011l-0.14,-0.01l-0.141,-0.009l-0.141,-0.008l-0.141,-0.007l-0.142,-0.007l-0.141,-0.005l-0.142,-0.005l-0.142,-0.004l-0.143,-0.003l-0.142,-0.002l-0.143,-0.002l-0.143,0l-0.142,0l-0.143,0.002l-0.143,0.002l-0.142,0.003l-0.142,0.004l-0.142,0.005l-0.141,0.005l-0.142,0.007l-0.141,0.007l-0.141,0.008l-0.141,0.009l-0.14,0.01l-0.14,0.011l-0.14,0.012l-0.14,0.012l-0.14,0.014l-0.139,0.014l-0.139,0.015l-0.139,0.016l-0.138,0.016l-0.139,0.018l-0.138,0.018l-0.138,0.019l-0.137,0.02l-0.137,0.021l-0.137,0.021l-0.137,0.023l-0.136,0.023l-0.137,0.024l-0.135,0.025l-0.136,0.026l-0.135,0.026l-0.135,0.027l-0.135,0.028l-0.135,0.029l-0.134,0.03l-0.134,0.03l-0.133,0.031l-0.133,0.032l-0.133,0.033l-0.133,0.033l-0.132,0.035l-0.132,0.035l-0.132,0.035l-0.132,0.037l-0.131,0.037l-0.13,0.039l-0.131,0.038l-0.13,0.04l-0.13,0.04l-0.129,0.042l-0.129,0.041l-0.129,0.043l-0.129,0.043l-0.128,0.045l-0.127,0.044l-0.128,0.046l-0.127,0.046l-0.127,0.047l-0.126,0.048l-0.126,0.049l-0.126,0.049l-0.125,0.05l-0.125,0.05l-0.105,-0.134l-0.107,-0.132l-0.109,-0.131l-0.111,-0.13l-0.112,-0.128l-0.114,-0.126l-0.116,-0.125l-0.118,-0.123l-0.119,-0.121l-0.121,-0.12l-0.123,-0.118l-0.124,-0.116l-0.126,-0.115l-0.128,-0.113l-0.129,-0.111l-0.131,-0.109l-0.132,-0.108l-0.134,-0.106l-0.135,-0.103l-0.137,-0.102l-0.138,-0.101l-0.139,-0.098l-0.142,-0.096l-0.142,-0.095l-0.144,-0.092l-0.145,-0.09l-0.147,-0.089l-0.148,-0.086l-0.149,-0.085l-0.15,-0.082l-0.152,-0.08l-0.153,-0.079l-0.155,-0.076l-0.155,-0.074l-0.157,-0.071l-0.158,-0.07l-0.159,-0.068l-0.16,-0.065l-0.161,-0.063l-0.163,-0.061l-0.163,-0.058l-0.165,-0.057l-0.165,-0.054l-0.167,-0.051l-0.168,-0.05l-0.168,-0.047l-0.17,-0.044l-0.17,-0.042l-0.172,-0.04l-0.172,-0.038l-0.174,-0.035l-0.174,-0.032l-0.175,-0.03l-0.176,-0.027l-0.177,-0.025l-0.177,-0.023l-0.178,-0.02l-0.179,-0.017l-0.18,-0.014l-0.181,-0.012l-0.181,-0.01l-0.182,-0.007l-0.182,-0.004l-0.184,-0.001l-0.099,0l-0.099,0.002l-0.098,0.002l-0.099,0.002l-0.098,0.004l-0.098,0.004l-0.098,0.005l-0.098,0.006l-0.097,0.007l-0.097,0.007l-0.097,0.008l-0.097,0.009l-0.097,0.01l-0.096,0.01l-0.096,0.011l-0.096,0.012l-0.096,0.013l-0.095,0.013l-0.096,0.015l-0.095,0.014l-0.094,0.016l-0.095,0.016l-0.094,0.017l-0.094,0.018l-0.094,0.019l-0.093,0.019l-0.093,0.02l-0.093,0.021l-0.185,0.043l-0.184,0.046l-0.183,0.049l-0.182,0.052l-0.181,0.055l-0.179,0.057l-0.178,0.06l-0.177,0.062l-0.176,0.065l-0.174,0.068l-0.173,0.071l-0.172,0.073l-0.171,0.075l-0.169,0.078l-0.167,0.081l-0.166,0.083l-0.165,0.086l-0.163,0.088l0,-63.882l0.607,-0.425l0.608,-0.423l0.607,-0.419l0.608,-0.415l0.608,-0.413l0.608,-0.409l0.608,-0.405l0.608,-0.403l0.608,-0.399l0.608,-0.396l0.609,-0.392l0.608,-0.389l0.609,-0.386l0.609,-0.382l0.609,-0.38l0.608,-0.375l0.609,-0.373l0.609,-0.369l0.61,-0.366l0.609,-0.363l0.609,-0.359l0.61,-0.356l0.609,-0.352l0.61,-0.35l0.61,-0.346l0.61,-0.342l0.61,-0.34l0.61,-0.336l0.61,-0.332l0.61,-0.33l0.61,-0.326l0.611,-0.322l0.61,-0.32l0.611,-0.316l0.305,-0.157l0.306,-0.156l0.305,-0.155l0.306,-0.154l0.305,-0.153l0.305,-0.153l0.306,-0.152l0.305,-0.151l0.306,-0.15l0.306,-0.149l0.305,-0.149l0.306,-0.147l0.305,-0.147l0.306,-0.146l0.306,-0.145l0.305,-0.145l0.306,-0.143l0.306,-0.143l0.306,-0.141l0.306,-0.141l0.305,-0.141l0.306,-0.139l0.306,-0.138l0.306,-0.138l0.306,-0.137l0.306,-0.136l0.306,-0.135l0.306,-0.134l0.306,-0.134l0.306,-0.133l0.306,-0.131l0.306,-0.131l0.306,-0.131l0.306,-0.129l0.307,-0.128l0.306,-0.128l0.306,-0.127l0.306,-0.126l0.306,-0.125l0.307,-0.124l0.306,-0.124l0.306,-0.123l0.307,-0.121l0.306,-0.121l0.307,-0.121l0.306,-0.119l0.306,-0.119l0.307,-0.117l0.306,-0.117l0.307,-0.116l0.307,-0.115l0.306,-0.115l0.307,-0.113l0.306,-0.113l0.307,-0.112l0.307,-0.111l0.306,-0.11l0.307,-0.109l0.307,-0.109l0.307,-0.107l0.306,-0.107l0.307,-0.106l0.307,-0.106l0.307,-0.104l0.307,-0.103l0.307,-0.103l0.307,-0.102l0.307,-0.101l0.307,-0.1l0.307,-0.1l0.307,-0.098l0.307,-0.098l0.307,-0.097l0.307,-0.096l0.307,-0.095l0.307,-0.094l0.307,-0.094l0.308,-0.092l0.307,-0.092l0.307,-0.091l0.307,-0.09l0.308,-0.09l0.307,-0.088l0.307,-0.088l0.308,-0.087l0.307,-0.086l0.308,-0.085l0.307,-0.084l0.308,-0.084l0.307,-0.083l0.308,-0.081l0.307,-0.081l0.308,-0.081l0.307,-0.079l0.308,-0.079l0.308,-0.077l0.307,-0.077l0.308,-0.076l0.308,-0.075l0.307,-0.075l0.308,-0.073l0.308,-0.073l0.308,-0.072l0.308,-0.071l0.307,-0.07l0.308,-0.069l0.308,-0.069l0.308,-0.067l0.308,-0.067l0.308,-0.066l0.308,-0.065l0.308,-0.065l0.308,-0.063l0.308,-0.063l0.308,-0.062l0.309,-0.061l0.308,-0.06l0.308,-0.059l0.308,-0.058l0.308,-0.058l0.309,-0.057l0.308,-0.056l0.308,-0.055l0.308,-0.054l0.309,-0.054l0.308,-0.052l0.309,-0.052l0.308,-0.051l0.308,-0.05l0.309,-0.05l0.308,-0.048l0.309,-0.048l0.308,-0.047l0.309,-0.045l0.309,-0.046l0.308,-0.044l0.309,-0.043l0.308,-0.043l0.309,-0.042l0.309,-0.041l0.309,-0.04l0.308,-0.039l0.309,-0.038l0.309,-0.038l0.309,-0.037l0.309,-0.036l0.308,-0.035l0.309,-0.034l0.309,-0.033l0.309,-0.033l0.309,-0.032l0.309,-0.031l0.309,-0.03l0.309,-0.029l0.309,-0.028l0.309,-0.028l0.31,-0.027l0.309,-0.026l0.309,-0.025l0.309,-0.024l0.309,-0.023l0.31,-0.023l0.309,-0.022l0.309,-0.02l0.309,-0.02l0.31,-0.02l0.309,-0.018l0.31,-0.017l0.309,-0.017l0.309,-0.016l0.31,-0.015l0.309,-0.014l0.31,-0.014l0.309,-0.012l0.31,-0.012l0.309,-0.011l0.31,-0.01l0.31,-0.009l0.309,-0.008l0.31,-0.008l0.31,-0.006l0.31,-0.006l0.309,-0.005l0.31,-0.004l0.31,-0.003l0.31,-0.003l0.31,-0.001l0.309,-0.001l0.31,0Zm-0.581,10l-0.283,0.002l-0.282,0.002l-0.283,0.003l-0.283,0.004l-0.283,0.005l-0.282,0.005l-0.283,0.006l-0.283,0.007l-0.282,0.007l-0.283,0.009l-0.282,0.009l-0.283,0.01l-0.282,0.01l-0.283,0.012l-0.282,0.012l-0.283,0.013l-0.283,0.014l-0.282,0.014l-0.282,0.015l-0.283,0.016l-0.282,0.017l-0.283,0.018l-0.282,0.018l-0.282,0.019l-0.283,0.02l-0.282,0.02l-0.282,0.022l-0.283,0.022l-0.282,0.023l-0.282,0.023l-0.283,0.025l-0.282,0.025l-0.282,0.026l-0.282,0.026l-0.283,0.028l-0.282,0.028l-0.282,0.029l-0.283,0.03l-0.282,0.031l-0.282,0.031l-0.282,0.032l-0.283,0.033l-0.282,0.033l-0.282,0.035l-0.282,0.035l-0.283,0.036l-0.282,0.036l-0.282,0.038l-0.282,0.038l-0.283,0.039l-0.282,0.04l-0.282,0.04l-0.282,0.041l-0.282,0.042l-0.282,0.043l-0.283,0.044l-0.283,0.044l-0.282,0.045l-0.282,0.046l-0.282,0.047l-0.282,0.047l-0.282,0.048l-0.283,0.049l-0.282,0.05l-0.282,0.051l-0.283,0.051l-0.282,0.052l-0.283,0.053l-0.282,0.053l-0.282,0.055l-0.282,0.055l-0.283,0.056l-0.283,0.056l-0.282,0.058l-0.282,0.058l-0.283,0.059l-0.282,0.06l-0.283,0.06l-0.283,0.062l-0.282,0.062l-0.282,0.062l-0.283,0.064l-0.283,0.065l-0.282,0.065l-0.283,0.066l-0.282,0.066l-0.283,0.068l-0.283,0.068l-0.283,0.069l-0.282,0.07l-0.283,0.071l-0.283,0.071l-0.282,0.072l-0.283,0.073l-0.283,0.074l-0.283,0.074l-0.283,0.076l-0.282,0.076l-0.283,0.077l-0.283,0.077l-0.283,0.079l-0.283,0.079l-0.283,0.08l-0.283,0.081l-0.283,0.081l-0.283,0.082l-0.284,0.083l-0.283,0.084l-0.283,0.085l-0.283,0.085l-0.283,0.087l-0.284,0.087l-0.283,0.087l-0.283,0.089l-0.283,0.089l-0.284,0.091l-0.283,0.09l-0.284,0.092l-0.283,0.093l-0.283,0.093l-0.284,0.094l-0.284,0.095l-0.283,0.096l-0.283,0.096l-0.284,0.097l-0.284,0.098l-0.283,0.099l-0.284,0.1l-0.284,0.1l-0.284,0.101l-0.284,0.102l-0.284,0.103l-0.284,0.104l-0.283,0.104l-0.285,0.105l-0.284,0.106l-0.283,0.107l-0.284,0.107l-0.285,0.109l-0.284,0.109l-0.284,0.11l-0.284,0.11l-0.284,0.112l-0.285,0.112l-0.284,0.113l-0.284,0.114l-0.285,0.115l-0.284,0.115l-0.285,0.116l-0.284,0.117l-0.284,0.118l-0.285,0.119l-0.285,0.119l-0.284,0.121l-0.285,0.121l-0.285,0.121l-0.284,0.123l-0.286,0.124l-0.284,0.124l-0.285,0.125l-0.285,0.126l-0.285,0.126l-0.285,0.128l-0.285,0.128l-0.285,0.129l-0.285,0.13l-0.285,0.131l-0.285,0.131l-0.285,0.132l-0.286,0.133l-0.285,0.134l-0.285,0.135l-0.286,0.136l-0.285,0.136l-0.285,0.137l-0.286,0.138l-0.286,0.139l-0.285,0.139l-0.286,0.14l-0.285,0.142l-0.286,0.141l-0.286,0.143l-0.285,0.144l-0.286,0.144l-0.286,0.145l-0.286,0.146l-0.281,0.145l-0.577,0.298l-0.572,0.299l-0.572,0.303l-0.572,0.306l-0.573,0.309l-0.573,0.312l-0.573,0.316l-0.573,0.318l-0.573,0.322l-0.573,0.326l-0.573,0.328l-0.574,0.332l-0.574,0.335l-0.574,0.338l-0.574,0.342l-0.574,0.345l-0.575,0.348l-0.574,0.352l-0.575,0.354l-0.575,0.358l-0.575,0.362l-0.575,0.364l-0.575,0.368l-0.576,0.371l-0.575,0.375l-0.576,0.378l-0.364,0.241l0,47.503l0.067,0.012l0.316,0.064l0.316,0.068l0.314,0.073l0.311,0.077l0.31,0.082l0.309,0.086l0.306,0.09l0.305,0.094l0.303,0.099l0.301,0.103l0.299,0.107l0.297,0.111l0.294,0.115l0.293,0.12l0.291,0.123l0.288,0.127l0.287,0.131l0.283,0.135l0.282,0.139l0.279,0.143l0.277,0.146l0.275,0.151l0.271,0.153l0.269,0.158l0.268,0.161l0.264,0.165l0.262,0.168l0.031,0.02l0.106,-0.02l0.197,-0.036l0.196,-0.034l0.196,-0.034l0.197,-0.032l0.197,-0.031l0.198,-0.03l0.198,-0.029l0.198,-0.027l0.198,-0.026l0.199,-0.026l0.2,-0.024l0.2,-0.022l0.2,-0.022l0.199,-0.02l0.201,-0.019l0.201,-0.018l0.201,-0.017l0.202,-0.016l0.201,-0.014l0.202,-0.013l0.202,-0.012l0.203,-0.01l0.203,-0.01l0.202,-0.008l0.204,-0.007l0.204,-0.005l0.202,-0.005l0.205,-0.003l0.204,-0.002l0.204,0l0.205,0l0.204,0.002l0.204,0.003l0.203,0.005l0.204,0.005l0.203,0.007l0.203,0.008l0.203,0.01l0.203,0.01l0.202,0.012l0.202,0.013l0.201,0.014l0.202,0.016l0.201,0.017l0.201,0.018l0.2,0.019l0.2,0.02l0.2,0.022l0.2,0.022l0.2,0.024l0.198,0.026l0.199,0.026l0.198,0.027l0.198,0.029l0.198,0.03l0.197,0.031l0.196,0.032l0.197,0.034l0.196,0.034l0.196,0.036l0.107,0.02l0.031,-0.02l0.261,-0.168l0.265,-0.165l0.267,-0.161l0.27,-0.158l0.271,-0.153l0.275,-0.151l0.277,-0.146l0.279,-0.143l0.282,-0.139l0.283,-0.135l0.287,-0.131l0.288,-0.127l0.291,-0.123l0.292,-0.12l0.295,-0.115l0.297,-0.111l0.299,-0.107l0.301,-0.103l0.303,-0.099l0.305,-0.094l0.306,-0.09l0.309,-0.086l0.31,-0.082l0.311,-0.077l0.314,-0.073l0.316,-0.068l0.316,-0.064l0.318,-0.059l0.32,-0.055l0.321,-0.05l0.322,-0.045l0.323,-0.041l0.325,-0.036l0.326,-0.032l0.326,-0.026l0.329,-0.022l0.328,-0.017l0.33,-0.012l0.33,-0.008l0.326,-0.002l0.29,0.002l0.283,0.005l0.282,0.009l0.283,0.012l0.282,0.017l0.281,0.019l0.28,0.023l0.279,0.027l0.279,0.03l0.278,0.034l0.276,0.037l0.277,0.04l0.275,0.044l0.273,0.047l0.273,0.051l0.272,0.054l0.271,0.057l0.27,0.06l0.267,0.064l0.268,0.067l0.266,0.07l0.265,0.074l0.262,0.076l0.262,0.08l0.262,0.083l0.258,0.086l0.258,0.089l0.256,0.092l0.254,0.095l0.254,0.098l0.252,0.102l0.25,0.104l0.248,0.107l0.247,0.109l0.245,0.113l0.244,0.116l0.242,0.118l0.24,0.122l0.238,0.124l0.237,0.126l0.234,0.129l0.233,0.133l0.232,0.135l0.23,0.138l0.227,0.14l0.225,0.142l0.224,0.146l0.222,0.148l0.22,0.15l0.218,0.153l0.216,0.156l0.213,0.158l0.212,0.16l0.21,0.163l0.208,0.166l0.206,0.168l0.204,0.17l0.201,0.172l0.2,0.175l0.197,0.177l0.195,0.18l0.194,0.182l0.19,0.184l0.188,0.186l0.187,0.189l0.184,0.191l0.182,0.192l0.179,0.196l0.178,0.197l0.175,0.2l0.172,0.201l0.17,0.204l0.168,0.206l0.166,0.208l0.162,0.209l0.161,0.212l0.158,0.214l0.156,0.216l0.153,0.218l0.15,0.22l0.148,0.222l0.146,0.224l0.142,0.225l0.14,0.227l0.138,0.23l0.135,0.231l0.132,0.234l0.13,0.234l0.126,0.237l0.124,0.238l0.122,0.24l0.118,0.242l0.116,0.244l0.112,0.245l0.11,0.247l0.107,0.248l0.104,0.25l0.101,0.252l0.099,0.253l0.095,0.255l0.092,0.256l0.089,0.258l0.086,0.259l0.083,0.26l0.079,0.262l0.077,0.264l0.073,0.264l0.071,0.266l0.067,0.267l0.063,0.269l0.061,0.269l0.057,0.271l0.054,0.271l0.051,0.274l0.047,0.273l0.044,0.275l0.04,0.276l0.037,0.277l0.034,0.278l0.03,0.279l0.026,0.279l0.024,0.28l0.019,0.281l0.016,0.282l0.013,0.282l0.009,0.283l0.005,0.283l0.002,0.277l-0.001,0.225l-0.003,0.218l-0.006,0.217l-0.007,0.216l-0.009,0.217l-0.012,0.216l-0.014,0.216l-0.015,0.215l-0.018,0.215l-0.02,0.214l-0.022,0.214l-0.024,0.213l-0.026,0.213l-0.028,0.213l-0.03,0.211l-0.032,0.212l-0.034,0.21l-0.036,0.21l-0.038,0.21l-0.04,0.209l-0.041,0.208l-0.044,0.207l-0.046,0.207l-0.048,0.207l-0.049,0.205l-0.052,0.205l-0.053,0.204l-0.055,0.203l-0.058,0.202l-0.059,0.202l-0.06,0.201l-0.063,0.2l-0.065,0.199l-0.066,0.199l-0.068,0.197l-0.07,0.197l-0.072,0.196l-0.073,0.195l-0.076,0.194l-0.076,0.193l-0.079,0.192l-0.081,0.192l-0.082,0.19l-0.084,0.189l-0.085,0.189l-0.088,0.188l-0.089,0.186l-0.09,0.186l-0.093,0.184l-0.094,0.184l-0.095,0.182l-0.097,0.181l-0.099,0.181l-0.1,0.179l-0.102,0.179l-0.104,0.177l-0.105,0.176l-0.106,0.175l-0.109,0.174l-0.109,0.172l-0.111,0.172l-0.113,0.171l-0.115,0.17l-0.115,0.168l-0.117,0.167l-0.119,0.166l-0.12,0.164l-0.122,0.164l-0.123,0.163l-0.124,0.161l-0.126,0.16l-0.128,0.159l-0.129,0.158l-0.13,0.156l-0.131,0.155l-0.133,0.154l-0.135,0.152l-0.075,0.084l0.156,0.037l0.224,0.055l0.223,0.058l0.22,0.061l0.219,0.062l0.219,0.066l0.22,0.069l0.216,0.07l0.217,0.074l0.216,0.076l0.215,0.078l0.214,0.082l0.213,0.083l0.211,0.086l0.211,0.089l0.21,0.091l0.21,0.095l0.207,0.095l0.206,0.099l0.205,0.101l0.205,0.104l0.204,0.107l0.201,0.108l0.2,0.111l0.201,0.115l0.199,0.116l0.196,0.118l0.195,0.121l0.195,0.124l0.193,0.126l0.19,0.127l0.193,0.132l0.188,0.133l0.187,0.135l0.187,0.139l0.183,0.14l0.183,0.143l0.182,0.145l0.179,0.147l0.178,0.15l0.177,0.152l0.175,0.155l0.173,0.157l0.171,0.159l0.17,0.161l0.168,0.164l0.166,0.166l0.164,0.167l0.161,0.17l0.163,0.175l0.158,0.175l0.156,0.176l0.154,0.179l0.153,0.182l0.151,0.184l0.148,0.185l0.146,0.188l0.144,0.19l0.142,0.192l0.14,0.194l0.138,0.196l0.135,0.199l0.133,0.2l0.13,0.202l0.128,0.203l0.126,0.206l0.124,0.208l0.121,0.21l0.118,0.212l0.116,0.213l0.114,0.215l0.111,0.216l0.108,0.219l0.106,0.221l0.102,0.221l0.1,0.222l0.098,0.225l0.094,0.225l0.091,0.224l0.088,0.227l0.086,0.227l0.082,0.229l0.079,0.229l0.077,0.229l0.073,0.23l0.07,0.23l0.067,0.231l0.065,0.231l0.061,0.232l0.058,0.233l0.055,0.232l0.053,0.233l0.049,0.234l0.046,0.233l0.043,0.234l0.04,0.233l0.038,0.235l0.034,0.234l0.032,0.234l0.028,0.234l0.026,0.234l0.022,0.235l0.02,0.234l0.017,0.234l0.014,0.234l0.01,0.234l0.009,0.234l0.005,0.233l0.002,0.233l0,0.233l-0.004,0.233l-0.006,0.232l-0.009,0.232l-0.011,0.232l-0.015,0.231l-0.017,0.231l-0.02,0.23l-0.023,0.23l-0.026,0.229l-0.028,0.229l-0.032,0.229l-0.033,0.227l-0.037,0.227l-0.039,0.227l-0.042,0.225l-0.045,0.226l-0.047,0.225l-0.05,0.223l-0.052,0.223l-0.056,0.223l-0.057,0.221l-0.061,0.221l-0.063,0.221l-0.066,0.219l-0.068,0.218l-0.071,0.217l-0.073,0.217l-0.076,0.216l-0.079,0.214l-0.081,0.215l-0.083,0.212l-0.087,0.212l-0.089,0.211l-0.091,0.21l-0.093,0.208l-0.097,0.208l-0.099,0.207l-0.101,0.205l-0.104,0.205l-0.106,0.202l-0.108,0.202l-0.112,0.201l-0.114,0.2l-0.116,0.198l-0.071,0.119l0.164,0.168l0.202,0.215l0.2,0.219l0.195,0.22l0.19,0.223l0.188,0.226l0.182,0.227l0.179,0.23l0.176,0.234l0.17,0.234l0.166,0.236l0.163,0.239l0.159,0.241l0.155,0.242l0.149,0.244l0.147,0.245l0.142,0.247l0.138,0.249l0.134,0.25l0.129,0.25l0.126,0.253l0.122,0.253l0.118,0.255l0.114,0.256l0.11,0.256l0.105,0.256l0.102,0.258l0.099,0.26l0.094,0.259l0.09,0.26l0.087,0.261l0.083,0.261l0.079,0.262l0.075,0.262l0.072,0.262l0.068,0.262l0.064,0.264l0.061,0.264l0.057,0.263l0.054,0.263l0.05,0.264l0.047,0.264l0.044,0.265l0.04,0.264l0.036,0.264l0.034,0.264l0.03,0.264l0.027,0.264l0.023,0.264l0.02,0.264l0.017,0.264l0.014,0.263l0.011,0.264l0.008,0.263l0.005,0.263l0.001,0.262l-0.001,0.263l-0.005,0.262l-0.007,0.262l-0.011,0.262l-0.013,0.261l-0.016,0.262l-0.02,0.26l-0.022,0.26l-0.025,0.261l-0.027,0.259l-0.031,0.259l-0.033,0.259l-0.037,0.259l-0.039,0.258l-0.042,0.257l-0.044,0.257l-0.048,0.257l-0.05,0.256l-0.052,0.255l-0.056,0.256l-0.058,0.254l-0.061,0.254l-0.063,0.254l-0.067,0.253l-0.068,0.252l-0.072,0.252l-0.074,0.25l-0.077,0.251l-0.079,0.25l-0.082,0.25l-0.085,0.249l-0.087,0.247l-0.089,0.248l-0.093,0.247l-0.095,0.245l-0.097,0.246l-0.1,0.244l-0.103,0.244l-0.105,0.243l-0.108,0.242l-0.11,0.242l-0.113,0.24l-0.115,0.24l-0.118,0.239l-0.121,0.238l-0.122,0.237l-0.126,0.237l-0.128,0.235l-0.13,0.234l-0.133,0.234l-0.136,0.233l-0.138,0.231l-0.141,0.231l-0.143,0.23l-0.145,0.228l-0.148,0.227l-0.151,0.227l-0.153,0.225l-0.156,0.224l-0.158,0.224l-0.16,0.221l-0.163,0.221l-0.166,0.219l-0.171,0.223l-0.203,0.258l-0.209,0.258l-0.212,0.257l-0.216,0.254l-0.218,0.252l-0.222,0.249l-0.226,0.247l-0.228,0.244l-0.231,0.241l-0.234,0.239l-0.238,0.235l-0.241,0.234l-0.244,0.23l-0.247,0.228l-0.25,0.225l-0.253,0.222l-0.256,0.218l-0.26,0.217l-0.263,0.213l-0.265,0.21l-0.269,0.207l-0.272,0.204l-0.275,0.2l-0.278,0.198l-0.281,0.194l-0.285,0.191l-0.287,0.187l-0.291,0.184l-0.294,0.181l-0.297,0.177l-0.299,0.172l-0.303,0.17l-0.307,0.166l-0.308,0.161l-0.312,0.158l-0.316,0.154l-0.303,0.142l-0.178,0.081l-0.159,0.072l-0.161,0.07l-0.164,0.071l-0.164,0.069l-0.162,0.067l-0.165,0.067l-0.168,0.067l-0.164,0.064l-0.167,0.063l-0.169,0.062l-0.17,0.062l-0.169,0.06l-0.168,0.058l-0.171,0.057l-0.173,0.057l-0.171,0.055l-0.173,0.054l-0.174,0.052l-0.174,0.051l-0.177,0.051l-0.172,0.048l-0.178,0.047l-0.179,0.047l-0.176,0.044l-0.178,0.044l-0.178,0.041l-0.18,0.041l-0.181,0.04l-0.181,0.038l-0.181,0.036l-0.182,0.035l-0.184,0.034l-0.182,0.032l-0.184,0.031l-0.184,0.029l-0.185,0.028l-0.187,0.026l-0.187,0.025l-0.185,0.023l-0.187,0.022l-0.187,0.02l-0.188,0.019l-0.19,0.017l-0.189,0.016l-0.19,0.014l-0.188,0.012l-0.19,0.011l-0.192,0.009l-0.192,0.007l-0.192,0.006l-0.192,0.004l-0.192,0.003l-0.17,0.001l-41.487,0l0,38.333l138.666,0l0,-190.52l-0.436,-0.279l-0.599,-0.381l-0.6,-0.379l-0.599,-0.374l-0.599,-0.371l-0.599,-0.368l-0.598,-0.365l-0.597,-0.361l-0.598,-0.358l-0.597,-0.354l-0.597,-0.352l-0.596,-0.347l-0.597,-0.345l-0.595,-0.341l-0.596,-0.338l-0.595,-0.334l-0.595,-0.332l-0.594,-0.327l-0.594,-0.325l-0.594,-0.321l-0.593,-0.318l-0.593,-0.315l-0.593,-0.311l-0.593,-0.308l-0.592,-0.304l-0.591,-0.302l-0.592,-0.298l-0.591,-0.294l-0.59,-0.292l-0.59,-0.288l-0.595,-0.287l-0.29,-0.139l-0.295,-0.14l-0.295,-0.14l-0.294,-0.139l-0.295,-0.137l-0.294,-0.137l-0.294,-0.137l-0.295,-0.135l-0.294,-0.135l-0.294,-0.134l-0.294,-0.133l-0.294,-0.132l-0.293,-0.131l-0.294,-0.131l-0.294,-0.129l-0.294,-0.129l-0.293,-0.128l-0.293,-0.128l-0.294,-0.126l-0.293,-0.126l-0.293,-0.124l-0.293,-0.124l-0.293,-0.124l-0.293,-0.122l-0.293,-0.122l-0.293,-0.121l-0.292,-0.119l-0.292,-0.119l-0.293,-0.119l-0.292,-0.117l-0.292,-0.117l-0.293,-0.116l-0.292,-0.115l-0.291,-0.114l-0.293,-0.114l-0.291,-0.112l-0.292,-0.112l-0.292,-0.111l-0.291,-0.111l-0.292,-0.109l-0.292,-0.109l-0.29,-0.107l-0.292,-0.107l-0.291,-0.107l-0.291,-0.105l-0.291,-0.105l-0.291,-0.103l-0.291,-0.103l-0.29,-0.103l-0.291,-0.101l-0.291,-0.1l-0.29,-0.1l-0.29,-0.099l-0.291,-0.098l-0.29,-0.098l-0.29,-0.096l-0.29,-0.096l-0.29,-0.095l-0.291,-0.094l-0.289,-0.094l-0.29,-0.092l-0.289,-0.092l-0.29,-0.091l-0.29,-0.09l-0.289,-0.09l-0.289,-0.088l-0.29,-0.088l-0.289,-0.087l-0.289,-0.086l-0.289,-0.086l-0.289,-0.084l-0.289,-0.084l-0.289,-0.083l-0.289,-0.082l-0.288,-0.082l-0.289,-0.08l-0.288,-0.08l-0.289,-0.079l-0.288,-0.079l-0.288,-0.077l-0.289,-0.077l-0.288,-0.076l-0.288,-0.075l-0.288,-0.074l-0.288,-0.074l-0.288,-0.073l-0.287,-0.071l-0.288,-0.072l-0.288,-0.07l-0.287,-0.07l-0.288,-0.068l-0.287,-0.068l-0.287,-0.068l-0.287,-0.066l-0.288,-0.066l-0.287,-0.065l-0.287,-0.064l-0.287,-0.063l-0.287,-0.063l-0.287,-0.062l-0.286,-0.061l-0.287,-0.06l-0.287,-0.059l-0.286,-0.059l-0.287,-0.058l-0.286,-0.057l-0.287,-0.056l-0.286,-0.056l-0.286,-0.054l-0.286,-0.054l-0.286,-0.053l-0.286,-0.053l-0.286,-0.051l-0.286,-0.051l-0.286,-0.05l-0.286,-0.05l-0.286,-0.048l-0.285,-0.048l-0.286,-0.047l-0.285,-0.046l-0.286,-0.045l-0.285,-0.045l-0.286,-0.044l-0.285,-0.043l-0.285,-0.042l-0.285,-0.042l-0.285,-0.041l-0.285,-0.039l-0.286,-0.04l-0.285,-0.038l-0.284,-0.038l-0.286,-0.037l-0.284,-0.036l-0.285,-0.035l-0.285,-0.035l-0.284,-0.034l-0.285,-0.033l-0.284,-0.032l-0.285,-0.031l-0.284,-0.031l-0.285,-0.03l-0.284,-0.029l-0.284,-0.029l-0.285,-0.027l-0.284,-0.027l-0.284,-0.026l-0.284,-0.026l-0.284,-0.024l-0.284,-0.024l-0.284,-0.023l-0.284,-0.022l-0.284,-0.022l-0.284,-0.02l-0.284,-0.02l-0.283,-0.02l-0.284,-0.018l-0.284,-0.018l-0.283,-0.017l-0.283,-0.016l-0.284,-0.015l-0.284,-0.015l-0.283,-0.013l-0.284,-0.013l-0.283,-0.013l-0.284,-0.011l-0.283,-0.011l-0.283,-0.01l-0.283,-0.009l-0.284,-0.009l-0.283,-0.007l-0.283,-0.007l-0.283,-0.006l-0.283,-0.006l-0.283,-0.004l-0.283,-0.004l-0.283,-0.003l-0.283,-0.003l-0.283,-0.001l-0.283,-0.001l-0.283,0l-0.283,0Z" style="fill:#adb9c9;"/><rect x="0" y="175.834" width="210" height="58.333" style="fill:#c9d3df;"/><path d="M210,234.167l-210,0l0,-58.333l210,0l0,58.333Zm-200,-48.333l0,38.333l190,0l0,-38.333l-190,0Z" style="fill:#adb9c9;"/><g><rect x="50" y="57.5" width="110" height="10" style="fill:#374355;fill-rule:nonzero;"/><rect x="75" y="37.5" width="60" height="10" style="fill:#374355;fill-rule:nonzero;"/></g></g></svg>