<?xml version="1.0" encoding="UTF-8" standalone="no"?><!DOCTYPE svg PUBLIC "-//W3C//DTD SVG 1.1//EN" "http://www.w3.org/Graphics/SVG/1.1/DTD/svg11.dtd"><svg width="100%" height="100%" viewBox="0 0 443 176" version="1.1" xmlns="http://www.w3.org/2000/svg" xmlns:xlink="http://www.w3.org/1999/xlink" xml:space="preserve" style="fill-rule:evenodd;clip-rule:evenodd;stroke-linejoin:round;stroke-miterlimit:1.41421;"><rect id="kerb.-memorial.-icon" x="0" y="0.001" width="443" height="175.2" style="fill:none;"/><clipPath id="_clip1"><rect x="0" y="0.001" width="443" height="175.2"/></clipPath><g clip-path="url(#_clip1)"><g><rect x="46.635" y="23.894" width="377.289" height="132.579" style="fill:#8393a7;"/><rect x="31.858" y="7.965" width="387.249" height="31.858" style="fill:#c9d3df;"/><path d="M419.107,39.823l-387.249,0l0,-31.858l387.249,0l0,31.858Zm-377.249,-21.858l0,11.858l367.249,0l0,-11.858l-367.249,0Z" style="fill:#adb9c9;"/><rect x="31.858" y="135.396" width="387.249" height="31.858" style="fill:#c9d3df;"/><path d="M419.107,167.254l-387.249,0l0,-31.858l387.249,0l0,31.858Zm-377.249,-21.858l0,11.858l367.249,0l0,-11.858l-367.249,0Z" style="fill:#adb9c9;"/><rect x="403.178" y="13.275" width="31.858" height="148.67" style="fill:#c9d3df;"/><path d="M435.036,161.944l-31.858,0l0,-148.669l31.858,0l0,148.669Zm-21.858,-138.669l0,128.669l11.858,0l0,-128.669l-11.858,0Z" style="fill:#adb9c9;"/><rect x="395.213" y="127.432" width="47.787" height="47.787" style="fill:#c9d3df;"/><path d="M443,175.218l-47.787,0l0,-47.786l47.787,0l0,47.786Zm-37.787,-37.786l0,27.786l27.787,0l0,-27.786l-27.787,0Z" style="fill:#adb9c9;"/><rect x="395.213" y="0.001" width="47.787" height="47.787" style="fill:#c9d3df;"/><path d="M443,47.787l-47.787,0l0,-47.786l47.787,0l0,47.786Zm-37.787,-37.786l0,27.786l27.787,0l0,-27.786l-27.787,0Z" style="fill:#adb9c9;"/><rect x="0" y="0.001" width="95.573" height="175.218" style="fill:#c9d3df;"/><path d="M95.573,175.218l-95.573,0l0,-175.217l95.573,0l0,175.217Zm-85.573,-165.217l0,155.217l75.573,0l0,-155.217l-75.573,0Z" style="fill:#adb9c9;"/><rect x="20.274" y="21.239" width="31.858" height="132.741" style="fill:#c9d3df;"/><path d="M52.132,153.98l-31.858,0l0,-132.741l31.858,0l0,132.741Zm-21.858,-122.741l0,112.741l11.858,0l0,-112.741l-11.858,0Z" style="fill:#adb9c9;"/></g></g></svg>