<?xml version="1.0" encoding="UTF-8" standalone="no"?><!DOCTYPE svg PUBLIC "-//W3C//DTD SVG 1.1//EN" "http://www.w3.org/Graphics/SVG/1.1/DTD/svg11.dtd"><svg width="100%" height="100%" viewBox="0 0 210 186" version="1.1" xmlns="http://www.w3.org/2000/svg" xmlns:xlink="http://www.w3.org/1999/xlink" xml:space="preserve" style="fill-rule:evenodd;clip-rule:evenodd;stroke-linejoin:round;stroke-miterlimit:1.41421;"><rect id="plaque.-memorial.-icon" x="0" y="0.001" width="210" height="185.5" style="fill:none;"/><clipPath id="_clip1"><rect x="0" y="0.001" width="210" height="185.5"/></clipPath><g clip-path="url(#_clip1)"><g><rect x="0" y="0.001" width="210" height="185.5" style="fill:#c9d3df;"/><path d="M210,185.501l-210,0l0,-185.5l210,0l0,185.5Zm-200,-175.5l0,165.5l190,0l0,-165.5l-190,0Z" style="fill:#adb9c9;"/><rect x="0" y="0.001" width="210" height="51.155" style="fill:#c9d3df;"/><path d="M210,51.156l-210,0l0,-51.155l210,0l0,51.155Zm-200,-41.155l0,31.155l190,0l0,-31.155l-190,0Z" style="fill:#adb9c9;"/><g><rect x="77.802" y="100.334" width="56.253" height="10" style="fill:#8393a7;"/><rect x="56.432" y="80.79" width="97.135" height="10" style="fill:#8393a7;"/><rect x="33.833" y="61.334" width="142.333" height="10" style="fill:#8393a7;"/></g></g></g></svg>