<?xml version="1.0" encoding="UTF-8" standalone="no"?><!DOCTYPE svg PUBLIC "-//W3C//DTD SVG 1.1//EN" "http://www.w3.org/Graphics/SVG/1.1/DTD/svg11.dtd"><svg width="100%" height="100%" viewBox="0 0 210 235" version="1.1" xmlns="http://www.w3.org/2000/svg" xmlns:xlink="http://www.w3.org/1999/xlink" xml:space="preserve" style="fill-rule:evenodd;clip-rule:evenodd;stroke-linejoin:round;stroke-miterlimit:1.41421;"><rect id="straighten.-and.-re.-fix.-headstone.-icon" x="0" y="0.001" width="210" height="235" style="fill:none;"/><clipPath id="_clip1"><rect x="0" y="0.001" width="210" height="235"/></clipPath><g clip-path="url(#_clip1)"><g><path d="M210,235l-210,0l0,-60l25,0l0,-148.184c7.993,-3.732 15.974,-7.496 24.081,-10.975c4.305,-1.847 8.649,-3.6 13.028,-5.261c4.237,-1.607 8.507,-3.129 12.819,-4.521c2.817,-0.909 5.651,-1.763 8.507,-2.539c2.555,-0.694 5.127,-1.326 7.719,-1.866c2.098,-0.437 4.209,-0.814 6.332,-1.101c2.008,-0.272 4.029,-0.464 6.054,-0.529c0.608,-0.02 1.215,-0.025 1.823,-0.023c0.612,0.008 1.224,0.023 1.835,0.052c1.909,0.091 3.812,0.288 5.704,0.553c2.129,0.299 4.244,0.686 6.346,1.132c2.594,0.551 5.168,1.192 7.725,1.894c2.853,0.783 5.684,1.642 8.498,2.557c4.41,1.432 8.777,2.999 13.109,4.653c4.146,1.584 8.26,3.249 12.339,4.999c8.107,3.479 16.088,7.243 24.081,10.975l0,148.184l25,0l0,60Z" style="fill:#adb9c9;"/><rect x="10" y="185" width="190" height="40" style="fill:#c9d3df;"/><path d="M35,175l140,0l0,-141.816c-1.366,-0.637 -2.733,-1.272 -4.101,-1.906c-5.189,-2.398 -10.395,-4.762 -15.662,-6.988c-3.603,-1.522 -7.236,-2.973 -10.893,-4.361c-4.33,-1.642 -8.695,-3.192 -13.108,-4.598c-2.416,-0.77 -4.846,-1.496 -7.293,-2.161c-2.242,-0.609 -4.498,-1.167 -6.77,-1.649c-1.764,-0.375 -3.538,-0.703 -5.322,-0.963c-1.601,-0.233 -3.212,-0.412 -4.828,-0.501c-0.487,-0.026 -0.974,-0.043 -1.462,-0.053c-0.28,-0.003 -0.56,-0.004 -0.84,-0.003c-0.482,0.006 -0.964,0.018 -1.445,0.041c-1.717,0.082 -3.427,0.268 -5.127,0.516c-1.784,0.26 -3.558,0.588 -5.322,0.963c-2.272,0.482 -4.528,1.04 -6.77,1.649c-2.576,0.7 -5.133,1.468 -7.675,2.283c-4.282,1.374 -8.521,2.882 -12.726,4.476c-3.951,1.5 -7.874,3.074 -11.762,4.73c-6.151,2.62 -12.222,5.42 -18.283,8.24l-0.611,0.285l0,141.816Z" style="fill:#c9d3df;"/><rect x="62.5" y="77" width="85" height="10" style="fill:#8393a7;fill-rule:nonzero;"/><rect x="50" y="57" width="110" height="10" style="fill:#8393a7;fill-rule:nonzero;"/><rect x="75" y="37" width="60" height="10" style="fill:#8393a7;fill-rule:nonzero;"/><path d="M70,205l-10,0l0,-50l10,0c0,16.666 0,33.333 0,50Z" style="fill:#374355;fill-rule:nonzero;"/><path d="M150,205l-10,0l0,-50l10,0c0,16.666 0,33.333 0,50Z" style="fill:#374355;fill-rule:nonzero;"/></g></g></svg>